<?xml version="1.0" encoding="utf-8"?>
<!-- Generator: Adobe Illustrator 24.1.2, SVG Export Plug-In . SVG Version: 6.00 Build 0)  -->
<svg version="1.1" id="Camada_1" xmlns="http://www.w3.org/2000/svg" xmlns:xlink="http://www.w3.org/1999/xlink" x="0px" y="0px"
	 viewBox="0 0 1920 800" style="enable-background:new 0 0 1920 800;" xml:space="preserve">
<style type="text/css">
	.st0{clip-path:url(#SVGID_2_);fill:#121214;}
	.st1{opacity:0.1;clip-path:url(#SVGID_4_);}
	.st2{fill:#FFFFFF;}
	
		.st3{opacity:0.8;clip-path:url(#SVGID_6_);fill:none;stroke:#FFFFFF;stroke-width:3;stroke-miterlimit:9.9999;enable-background:new    ;}
	.st4{opacity:0.1;clip-path:url(#SVGID_8_);}
	.st5{clip-path:url(#SVGID_10_);}
	.st6{clip-path:url(#SVGID_12_);}
	.st7{opacity:0.2;fill:#FFFFFF;enable-background:new    ;}
	.st8{opacity:0.4;clip-path:url(#SVGID_14_);fill:none;stroke:#EF2975;stroke-miterlimit:10;enable-background:new    ;}
	.st9{opacity:0.1;clip-path:url(#SVGID_16_);fill:none;stroke:#EF2975;stroke-miterlimit:10;enable-background:new    ;}
	.st10{clip-path:url(#SVGID_18_);}
	.st11{fill:none;stroke:#FFFFFF;stroke-width:1;stroke-miterlimit:9.9999;}
	.st12{opacity:0.6;clip-path:url(#SVGID_20_);}
	.st13{fill:none;stroke:#FFFFFF;stroke-miterlimit:10;}
	.st14{clip-path:url(#SVGID_22_);fill:#EF2975;}
	.st15{clip-path:url(#SVGID_24_);fill:#EF2975;}
	.st16{clip-path:url(#SVGID_26_);fill:#8257E6;}
	.st17{opacity:0.5;clip-path:url(#SVGID_28_);fill:#8257E6;enable-background:new    ;}
	.st18{opacity:0.3;clip-path:url(#SVGID_30_);fill:#8257E6;enable-background:new    ;}
	.st19{opacity:0.1;clip-path:url(#SVGID_32_);fill:#8257E6;enable-background:new    ;}
</style>
<g>
	<g>
		<defs>
			<rect id="SVGID_1_" y="-0.08" width="1920" height="799.66"/>
		</defs>
		<clipPath id="SVGID_2_">
			<use xlink:href="#SVGID_1_"  style="overflow:visible;"/>
		</clipPath>
		<rect class="st0" width="1920" height="800"/>
	</g>
	<g>
		<defs>
			<rect id="SVGID_3_" y="-0.08" width="1920" height="799.66"/>
		</defs>
		<clipPath id="SVGID_4_">
			<use xlink:href="#SVGID_3_"  style="overflow:visible;"/>
		</clipPath>
		<g class="st1">
			<rect x="126.61" y="501.86" class="st2" width="6.27" height="6.27"/>
			<rect x="166.46" y="501.86" class="st2" width="6.27" height="6.27"/>
			<rect x="206.3" y="501.86" class="st2" width="6.27" height="6.27"/>
			<rect x="246.14" y="501.86" class="st2" width="6.27" height="6.27"/>
			<rect x="285.98" y="501.86" class="st2" width="6.27" height="6.27"/>
			<rect x="325.82" y="501.86" class="st2" width="6.27" height="6.27"/>
			<rect x="365.66" y="501.86" class="st2" width="6.27" height="6.27"/>
			<rect x="405.5" y="501.86" class="st2" width="6.27" height="6.27"/>
			<rect x="445.34" y="501.86" class="st2" width="6.27" height="6.27"/>
			<rect x="126.61" y="534.94" class="st2" width="6.27" height="6.27"/>
			<rect x="166.46" y="534.94" class="st2" width="6.27" height="6.27"/>
			<rect x="206.3" y="534.94" class="st2" width="6.27" height="6.27"/>
			<rect x="246.14" y="534.94" class="st2" width="6.27" height="6.27"/>
			<rect x="285.98" y="534.94" class="st2" width="6.27" height="6.27"/>
			<rect x="325.82" y="534.94" class="st2" width="6.27" height="6.27"/>
			<rect x="365.66" y="534.94" class="st2" width="6.27" height="6.27"/>
			<rect x="405.5" y="534.94" class="st2" width="6.27" height="6.27"/>
			<rect x="445.34" y="534.94" class="st2" width="6.27" height="6.27"/>
			<rect x="126.61" y="568.02" class="st2" width="6.27" height="6.27"/>
			<rect x="166.46" y="568.02" class="st2" width="6.27" height="6.27"/>
			<rect x="206.3" y="568.02" class="st2" width="6.27" height="6.27"/>
			<rect x="246.14" y="568.02" class="st2" width="6.27" height="6.27"/>
			<rect x="285.98" y="568.02" class="st2" width="6.27" height="6.27"/>
			<rect x="325.82" y="568.02" class="st2" width="6.27" height="6.27"/>
			<rect x="365.66" y="568.02" class="st2" width="6.27" height="6.27"/>
			<rect x="405.5" y="568.02" class="st2" width="6.27" height="6.27"/>
			<rect x="445.34" y="568.02" class="st2" width="6.27" height="6.27"/>
			<rect x="126.61" y="601.1" class="st2" width="6.27" height="6.27"/>
			<rect x="166.46" y="601.1" class="st2" width="6.27" height="6.27"/>
			<rect x="206.3" y="601.1" class="st2" width="6.27" height="6.27"/>
			<rect x="246.14" y="601.1" class="st2" width="6.27" height="6.27"/>
			<rect x="285.98" y="601.1" class="st2" width="6.27" height="6.27"/>
			<rect x="325.82" y="601.1" class="st2" width="6.27" height="6.27"/>
			<rect x="365.66" y="601.1" class="st2" width="6.27" height="6.27"/>
			<rect x="405.5" y="601.1" class="st2" width="6.27" height="6.27"/>
			<rect x="445.34" y="601.1" class="st2" width="6.27" height="6.27"/>
			<rect x="126.61" y="634.18" class="st2" width="6.27" height="6.27"/>
			<rect x="166.46" y="634.18" class="st2" width="6.27" height="6.27"/>
			<rect x="206.3" y="634.18" class="st2" width="6.27" height="6.27"/>
			<rect x="246.14" y="634.18" class="st2" width="6.27" height="6.27"/>
			<rect x="285.98" y="634.18" class="st2" width="6.27" height="6.27"/>
			<rect x="325.82" y="634.18" class="st2" width="6.27" height="6.27"/>
			<rect x="365.66" y="634.18" class="st2" width="6.27" height="6.27"/>
			<rect x="405.5" y="634.18" class="st2" width="6.27" height="6.27"/>
			<rect x="445.34" y="634.18" class="st2" width="6.27" height="6.27"/>
			<rect x="126.61" y="667.26" class="st2" width="6.27" height="6.27"/>
			<rect x="166.46" y="667.26" class="st2" width="6.27" height="6.27"/>
			<rect x="206.3" y="667.26" class="st2" width="6.27" height="6.27"/>
			<rect x="246.14" y="667.26" class="st2" width="6.27" height="6.27"/>
			<rect x="285.98" y="667.26" class="st2" width="6.27" height="6.27"/>
			<rect x="325.82" y="667.26" class="st2" width="6.27" height="6.27"/>
			<rect x="365.66" y="667.26" class="st2" width="6.27" height="6.27"/>
			<rect x="405.5" y="667.26" class="st2" width="6.27" height="6.27"/>
			<rect x="445.34" y="667.26" class="st2" width="6.27" height="6.27"/>
			<rect x="126.61" y="700.34" class="st2" width="6.27" height="6.27"/>
			<rect x="166.46" y="700.34" class="st2" width="6.27" height="6.27"/>
			<rect x="206.3" y="700.34" class="st2" width="6.27" height="6.27"/>
			<rect x="246.14" y="700.34" class="st2" width="6.27" height="6.27"/>
			<rect x="285.98" y="700.34" class="st2" width="6.27" height="6.27"/>
			<rect x="325.82" y="700.34" class="st2" width="6.27" height="6.27"/>
			<rect x="365.66" y="700.34" class="st2" width="6.27" height="6.27"/>
			<rect x="405.5" y="700.34" class="st2" width="6.27" height="6.27"/>
			<rect x="445.34" y="700.34" class="st2" width="6.27" height="6.27"/>
			<rect x="126.61" y="733.43" class="st2" width="6.27" height="6.27"/>
			<rect x="166.46" y="733.43" class="st2" width="6.27" height="6.27"/>
			<rect x="206.3" y="733.43" class="st2" width="6.27" height="6.27"/>
			<rect x="246.14" y="733.43" class="st2" width="6.27" height="6.27"/>
			<rect x="285.98" y="733.43" class="st2" width="6.27" height="6.27"/>
			<rect x="325.82" y="733.43" class="st2" width="6.27" height="6.27"/>
			<rect x="365.66" y="733.43" class="st2" width="6.27" height="6.27"/>
			<rect x="405.5" y="733.43" class="st2" width="6.27" height="6.27"/>
			<rect x="445.34" y="733.43" class="st2" width="6.27" height="6.27"/>
			<rect x="126.61" y="766.51" class="st2" width="6.27" height="6.27"/>
			<rect x="166.46" y="766.51" class="st2" width="6.27" height="6.27"/>
			<rect x="206.3" y="766.51" class="st2" width="6.27" height="6.27"/>
			<rect x="246.14" y="766.51" class="st2" width="6.27" height="6.27"/>
			<rect x="285.98" y="766.51" class="st2" width="6.27" height="6.27"/>
			<rect x="325.82" y="766.51" class="st2" width="6.27" height="6.27"/>
			<rect x="365.66" y="766.51" class="st2" width="6.27" height="6.27"/>
			<rect x="405.5" y="766.51" class="st2" width="6.27" height="6.27"/>
			<rect x="445.34" y="766.51" class="st2" width="6.27" height="6.27"/>
			<rect x="126.61" y="799.59" class="st2" width="6.27" height="6.27"/>
			<rect x="166.46" y="799.59" class="st2" width="6.27" height="6.27"/>
			<rect x="206.3" y="799.59" class="st2" width="6.27" height="6.27"/>
			<rect x="246.14" y="799.59" class="st2" width="6.27" height="6.27"/>
			<rect x="285.98" y="799.59" class="st2" width="6.27" height="6.27"/>
			<rect x="325.82" y="799.59" class="st2" width="6.27" height="6.27"/>
			<rect x="365.66" y="799.59" class="st2" width="6.27" height="6.27"/>
			<rect x="405.5" y="799.59" class="st2" width="6.27" height="6.27"/>
			<rect x="445.34" y="799.59" class="st2" width="6.27" height="6.27"/>
		</g>
	</g>
	<g>
		<defs>
			
				<rect id="SVGID_5_" x="177.1" y="427.99" transform="matrix(0.7071 -0.7071 0.7071 0.7071 -252.309 1046.5093)" width="1919.98" height="799.65"/>
		</defs>
		<clipPath id="SVGID_6_">
			<use xlink:href="#SVGID_5_"  style="overflow:visible;"/>
		</clipPath>
		
			<rect x="1361.56" y="196.31" transform="matrix(0.7071 -0.7071 0.7071 0.7071 175.6062 1223.9688)" class="st3" width="407.41" height="407.41"/>
	</g>
	<g>
		<defs>
			<rect id="SVGID_7_" y="-0.08" width="1920" height="799.66"/>
		</defs>
		<clipPath id="SVGID_8_">
			<use xlink:href="#SVGID_7_"  style="overflow:visible;"/>
		</clipPath>
		<g class="st4">
			<circle class="st2" cx="1642.49" cy="-44.42" r="1.72"/>
			<circle class="st2" cx="1665.52" cy="-44.42" r="1.72"/>
			<circle class="st2" cx="1688.54" cy="-44.42" r="1.72"/>
			<circle class="st2" cx="1711.57" cy="-44.42" r="1.72"/>
			<circle class="st2" cx="1734.59" cy="-44.42" r="1.72"/>
			<circle class="st2" cx="1757.62" cy="-44.42" r="1.72"/>
			<circle class="st2" cx="1780.64" cy="-44.42" r="1.72"/>
			<path class="st2" d="M1803.67-46.14c-0.95,0-1.72,0.77-1.72,1.72s0.77,1.72,1.72,1.72s1.72-0.77,1.72-1.72
				S1804.62-46.14,1803.67-46.14z"/>
			<path class="st2" d="M1826.69-46.14c-0.95,0-1.72,0.77-1.72,1.72s0.77,1.72,1.72,1.72s1.72-0.77,1.72-1.72
				S1827.64-46.14,1826.69-46.14z"/>
			<path class="st2" d="M1849.72-42.7c0.95,0,1.72-0.77,1.72-1.72s-0.77-1.72-1.72-1.72s-1.72,0.77-1.72,1.72
				S1848.77-42.7,1849.72-42.7z"/>
			<circle class="st2" cx="1642.49" cy="-22.25" r="1.72"/>
			<circle class="st2" cx="1665.52" cy="-22.25" r="1.72"/>
			<circle class="st2" cx="1688.54" cy="-22.25" r="1.72"/>
			<circle class="st2" cx="1711.57" cy="-22.25" r="1.72"/>
			<circle class="st2" cx="1734.59" cy="-22.25" r="1.72"/>
			<circle class="st2" cx="1757.62" cy="-22.25" r="1.72"/>
			<circle class="st2" cx="1780.64" cy="-22.25" r="1.72"/>
			<path class="st2" d="M1803.67-23.97c-0.95,0-1.72,0.77-1.72,1.72c0,0.95,0.77,1.72,1.72,1.72s1.72-0.77,1.72-1.72
				C1805.39-23.2,1804.62-23.97,1803.67-23.97z"/>
			<path class="st2" d="M1826.69-23.97c-0.95,0-1.72,0.77-1.72,1.72c0,0.95,0.77,1.72,1.72,1.72s1.72-0.77,1.72-1.72
				C1828.41-23.2,1827.64-23.97,1826.69-23.97z"/>
			<path class="st2" d="M1849.72-23.97c-0.95,0-1.72,0.77-1.72,1.72c0,0.95,0.77,1.72,1.72,1.72s1.72-0.77,1.72-1.72
				C1851.44-23.2,1850.67-23.97,1849.72-23.97z"/>
			<circle class="st2" cx="1642.49" cy="-0.08" r="1.72"/>
			<circle class="st2" cx="1665.52" cy="-0.08" r="1.72"/>
			<circle class="st2" cx="1688.54" cy="-0.08" r="1.72"/>
			<circle class="st2" cx="1711.57" cy="-0.08" r="1.72"/>
			<circle class="st2" cx="1734.59" cy="-0.08" r="1.72"/>
			<circle class="st2" cx="1757.62" cy="-0.08" r="1.72"/>
			<circle class="st2" cx="1780.64" cy="-0.08" r="1.72"/>
			<path class="st2" d="M1803.67-1.8c-0.95,0-1.72,0.77-1.72,1.72s0.77,1.72,1.72,1.72s1.72-0.77,1.72-1.72S1804.62-1.8,1803.67-1.8
				z"/>
			<path class="st2" d="M1826.69-1.8c-0.95,0-1.72,0.77-1.72,1.72s0.77,1.72,1.72,1.72s1.72-0.77,1.72-1.72
				C1828.41-1.03,1827.64-1.8,1826.69-1.8z"/>
			<path class="st2" d="M1849.72-1.8c-0.95,0-1.72,0.77-1.72,1.72s0.77,1.72,1.72,1.72s1.72-0.77,1.72-1.72S1850.67-1.8,1849.72-1.8
				z"/>
			<circle class="st2" cx="1642.49" cy="22.1" r="1.72"/>
			<circle class="st2" cx="1665.52" cy="22.1" r="1.72"/>
			<circle class="st2" cx="1688.54" cy="22.1" r="1.72"/>
			<circle class="st2" cx="1711.57" cy="22.1" r="1.72"/>
			<circle class="st2" cx="1734.59" cy="22.1" r="1.72"/>
			<circle class="st2" cx="1757.62" cy="22.1" r="1.72"/>
			<circle class="st2" cx="1780.64" cy="22.1" r="1.72"/>
			<path class="st2" d="M1803.67,20.37c-0.95,0-1.72,0.77-1.72,1.72s0.77,1.72,1.72,1.72s1.72-0.77,1.72-1.72
				S1804.62,20.37,1803.67,20.37z"/>
			<path class="st2" d="M1826.69,20.37c-0.95,0-1.72,0.77-1.72,1.72s0.77,1.72,1.72,1.72s1.72-0.77,1.72-1.72
				S1827.64,20.37,1826.69,20.37z"/>
			<path class="st2" d="M1849.72,20.37c-0.95,0-1.72,0.77-1.72,1.72s0.77,1.72,1.72,1.72s1.72-0.77,1.72-1.72
				S1850.67,20.37,1849.72,20.37z"/>
			<circle class="st2" cx="1642.49" cy="44.27" r="1.72"/>
			<circle class="st2" cx="1665.52" cy="44.27" r="1.72"/>
			<circle class="st2" cx="1688.54" cy="44.27" r="1.72"/>
			<circle class="st2" cx="1711.57" cy="44.27" r="1.72"/>
			<circle class="st2" cx="1734.59" cy="44.27" r="1.72"/>
			<circle class="st2" cx="1757.62" cy="44.27" r="1.72"/>
			<circle class="st2" cx="1780.64" cy="44.27" r="1.72"/>
			<path class="st2" d="M1803.67,42.55c-0.95,0-1.72,0.77-1.72,1.72s0.77,1.72,1.72,1.72s1.72-0.77,1.72-1.72
				S1804.62,42.55,1803.67,42.55z"/>
			<path class="st2" d="M1826.69,42.55c-0.95,0-1.72,0.77-1.72,1.72s0.77,1.72,1.72,1.72s1.72-0.77,1.72-1.72
				C1828.41,43.32,1827.64,42.55,1826.69,42.55z"/>
			<path class="st2" d="M1849.72,42.55c-0.95,0-1.72,0.77-1.72,1.72s0.77,1.72,1.72,1.72s1.72-0.77,1.72-1.72
				S1850.67,42.55,1849.72,42.55z"/>
			<circle class="st2" cx="1642.49" cy="66.44" r="1.72"/>
			<circle class="st2" cx="1665.52" cy="66.44" r="1.72"/>
			<circle class="st2" cx="1688.54" cy="66.44" r="1.72"/>
			<circle class="st2" cx="1711.57" cy="66.44" r="1.72"/>
			<circle class="st2" cx="1734.59" cy="66.44" r="1.72"/>
			<circle class="st2" cx="1757.62" cy="66.44" r="1.72"/>
			<circle class="st2" cx="1780.64" cy="66.44" r="1.72"/>
			<path class="st2" d="M1803.67,64.72c-0.95,0-1.72,0.77-1.72,1.72c0,0.95,0.77,1.72,1.72,1.72s1.72-0.77,1.72-1.72
				S1804.62,64.72,1803.67,64.72z"/>
			<path class="st2" d="M1826.69,64.72c-0.95,0-1.72,0.77-1.72,1.72c0,0.95,0.77,1.72,1.72,1.72s1.72-0.77,1.72-1.72
				C1828.41,65.49,1827.64,64.72,1826.69,64.72z"/>
			<path class="st2" d="M1849.72,64.72c-0.95,0-1.72,0.77-1.72,1.72c0,0.95,0.77,1.72,1.72,1.72s1.72-0.77,1.72-1.72
				S1850.67,64.72,1849.72,64.72z"/>
			<circle class="st2" cx="1642.49" cy="88.61" r="1.72"/>
			<circle class="st2" cx="1665.52" cy="88.61" r="1.72"/>
			<circle class="st2" cx="1688.54" cy="88.61" r="1.72"/>
			<circle class="st2" cx="1711.57" cy="88.61" r="1.72"/>
			<circle class="st2" cx="1734.59" cy="88.61" r="1.72"/>
			<circle class="st2" cx="1757.62" cy="88.61" r="1.72"/>
			<circle class="st2" cx="1780.64" cy="88.61" r="1.72"/>
			<path class="st2" d="M1803.67,86.89c-0.95,0-1.72,0.77-1.72,1.72c0,0.95,0.77,1.72,1.72,1.72s1.72-0.77,1.72-1.72
				C1805.39,87.66,1804.62,86.89,1803.67,86.89z"/>
			<path class="st2" d="M1826.69,86.89c-0.95,0-1.72,0.77-1.72,1.72c0,0.95,0.77,1.72,1.72,1.72s1.72-0.77,1.72-1.72
				C1828.41,87.66,1827.64,86.89,1826.69,86.89z"/>
			<path class="st2" d="M1849.72,86.89c-0.95,0-1.72,0.77-1.72,1.72c0,0.95,0.77,1.72,1.72,1.72s1.72-0.77,1.72-1.72
				C1851.44,87.66,1850.67,86.89,1849.72,86.89z"/>
			<circle class="st2" cx="1642.49" cy="110.78" r="1.72"/>
			<circle class="st2" cx="1665.52" cy="110.78" r="1.72"/>
			<circle class="st2" cx="1688.54" cy="110.78" r="1.72"/>
			<circle class="st2" cx="1711.57" cy="110.78" r="1.72"/>
			<circle class="st2" cx="1734.59" cy="110.78" r="1.72"/>
			<circle class="st2" cx="1757.62" cy="110.78" r="1.72"/>
			<circle class="st2" cx="1780.64" cy="110.78" r="1.72"/>
			<path class="st2" d="M1803.67,109.06c-0.95,0-1.72,0.77-1.72,1.72c0,0.95,0.77,1.72,1.72,1.72s1.72-0.77,1.72-1.72
				C1805.39,109.83,1804.62,109.06,1803.67,109.06z"/>
			<path class="st2" d="M1826.69,109.06c-0.95,0-1.72,0.77-1.72,1.72c0,0.95,0.77,1.72,1.72,1.72s1.72-0.77,1.72-1.72
				C1828.41,109.83,1827.64,109.06,1826.69,109.06z"/>
			<path class="st2" d="M1849.72,109.06c-0.95,0-1.72,0.77-1.72,1.72c0,0.95,0.77,1.72,1.72,1.72s1.72-0.77,1.72-1.72
				C1851.44,109.83,1850.67,109.06,1849.72,109.06z"/>
			<circle class="st2" cx="1642.49" cy="132.96" r="1.72"/>
			<circle class="st2" cx="1665.52" cy="132.96" r="1.72"/>
			<circle class="st2" cx="1688.54" cy="132.96" r="1.72"/>
			
				<ellipse transform="matrix(0.1602 -0.9871 0.9871 0.1602 1306.1921 1801.1404)" class="st2" cx="1711.61" cy="132.94" rx="1.72" ry="1.72"/>
			
				<ellipse transform="matrix(0.1602 -0.9871 0.9871 0.1602 1325.5238 1823.8713)" class="st2" cx="1734.63" cy="132.94" rx="1.72" ry="1.72"/>
			
				<ellipse transform="matrix(0.1602 -0.9871 0.9871 0.1602 1344.8663 1846.5956)" class="st2" cx="1757.66" cy="132.93" rx="1.72" ry="1.72"/>
			
				<ellipse transform="matrix(0.1602 -0.9871 0.9871 0.1602 1364.198 1869.3267)" class="st2" cx="1780.68" cy="132.94" rx="1.72" ry="1.72"/>
			<path class="st2" d="M1803.67,131.24c-0.95,0-1.72,0.77-1.72,1.72s0.77,1.72,1.72,1.72s1.72-0.77,1.72-1.72
				S1804.62,131.24,1803.67,131.24z"/>
			<path class="st2" d="M1826.69,131.24c-0.95,0-1.72,0.77-1.72,1.72s0.77,1.72,1.72,1.72s1.72-0.77,1.72-1.72
				S1827.64,131.24,1826.69,131.24z"/>
			<path class="st2" d="M1849.72,131.24c-0.95,0-1.72,0.77-1.72,1.72s0.77,1.72,1.72,1.72s1.72-0.77,1.72-1.72
				S1850.67,131.24,1849.72,131.24z"/>
			<circle class="st2" cx="1642.49" cy="155.13" r="1.72"/>
			<circle class="st2" cx="1665.52" cy="155.13" r="1.72"/>
			<circle class="st2" cx="1688.54" cy="155.13" r="1.72"/>
			
				<ellipse transform="matrix(0.1602 -0.9871 0.9871 0.1602 1284.3047 1819.7588)" class="st2" cx="1711.6" cy="155.11" rx="1.72" ry="1.72"/>
			
				<ellipse transform="matrix(0.1602 -0.9871 0.9871 0.1602 1303.6364 1842.4899)" class="st2" cx="1734.63" cy="155.11" rx="1.72" ry="1.72"/>
			
				<ellipse transform="matrix(0.1602 -0.9871 0.9871 0.1602 1322.9789 1865.2141)" class="st2" cx="1757.65" cy="155.11" rx="1.72" ry="1.72"/>
			
				<ellipse transform="matrix(0.1602 -0.9871 0.9871 0.1602 1342.3105 1887.9452)" class="st2" cx="1780.68" cy="155.11" rx="1.72" ry="1.72"/>
			<path class="st2" d="M1803.67,153.41c-0.95,0-1.72,0.77-1.72,1.72s0.77,1.72,1.72,1.72s1.72-0.77,1.72-1.72
				C1805.39,154.18,1804.62,153.41,1803.67,153.41z"/>
			<path class="st2" d="M1826.69,153.41c-0.95,0-1.72,0.77-1.72,1.72s0.77,1.72,1.72,1.72s1.72-0.77,1.72-1.72
				C1828.41,154.18,1827.64,153.41,1826.69,153.41z"/>
			<path class="st2" d="M1849.72,153.41c-0.95,0-1.72,0.77-1.72,1.72s0.77,1.72,1.72,1.72s1.72-0.77,1.72-1.72
				C1851.44,154.18,1850.67,153.41,1849.72,153.41z"/>
		</g>
	</g>
	<g>
		<defs>
			<rect id="SVGID_9_" y="-0.08" width="1920" height="799.66"/>
		</defs>
		<clipPath id="SVGID_10_">
			<use xlink:href="#SVGID_9_"  style="overflow:visible;"/>
		</clipPath>
		<g class="st5">
			<circle class="st2" cx="364.17" cy="575.71" r="0.7"/>
			<circle class="st2" cx="411.76" cy="575.71" r="0.7"/>
			<circle class="st2" cx="459.35" cy="575.71" r="0.7"/>
			<circle class="st2" cx="506.94" cy="575.71" r="0.7"/>
			<circle class="st2" cx="554.53" cy="575.71" r="0.7"/>
			<circle class="st2" cx="602.12" cy="575.71" r="0.7"/>
			<path class="st2" d="M649.7,575.01c-0.39,0-0.7,0.31-0.7,0.7s0.31,0.7,0.7,0.7s0.7-0.31,0.7-0.7
				C650.41,575.32,650.09,575.01,649.7,575.01z"/>
			<path class="st2" d="M697.29,576.42c0.39,0,0.7-0.31,0.7-0.7s-0.31-0.7-0.7-0.7s-0.7,0.31-0.7,0.7
				C696.59,576.1,696.9,576.42,697.29,576.42z"/>
			<circle class="st2" cx="364.17" cy="618.9" r="0.7"/>
			<circle class="st2" cx="411.76" cy="618.9" r="0.7"/>
			<circle class="st2" cx="459.35" cy="618.9" r="0.7"/>
			<circle class="st2" cx="506.94" cy="618.9" r="0.7"/>
			<circle class="st2" cx="554.53" cy="618.9" r="0.7"/>
			<circle class="st2" cx="602.12" cy="618.9" r="0.7"/>
			<path class="st2" d="M649.7,618.2c-0.39,0-0.7,0.31-0.7,0.7s0.31,0.7,0.7,0.7s0.7-0.31,0.7-0.7S650.09,618.2,649.7,618.2z"/>
			<path class="st2" d="M697.29,618.2c-0.39,0-0.7,0.31-0.7,0.7s0.31,0.7,0.7,0.7s0.7-0.31,0.7-0.7S697.68,618.2,697.29,618.2z"/>
			<path class="st2" d="M364.17,661.39c-0.39,0-0.7,0.31-0.7,0.7s0.31,0.7,0.7,0.7s0.7-0.31,0.7-0.7S364.56,661.39,364.17,661.39z"
				/>
			<path class="st2" d="M411.76,661.39c-0.39,0-0.7,0.31-0.7,0.7s0.31,0.7,0.7,0.7s0.7-0.31,0.7-0.7S412.15,661.39,411.76,661.39z"
				/>
			<path class="st2" d="M459.35,661.39c-0.39,0-0.7,0.31-0.7,0.7s0.31,0.7,0.7,0.7s0.7-0.31,0.7-0.7S459.74,661.39,459.35,661.39z"
				/>
			<path class="st2" d="M506.94,661.39c-0.39,0-0.7,0.31-0.7,0.7s0.31,0.7,0.7,0.7s0.7-0.31,0.7-0.7S507.33,661.39,506.94,661.39z"
				/>
			<path class="st2" d="M554.53,661.39c-0.39,0-0.7,0.31-0.7,0.7s0.31,0.7,0.7,0.7s0.7-0.31,0.7-0.7S554.92,661.39,554.53,661.39z"
				/>
			<path class="st2" d="M602.12,661.39c-0.39,0-0.7,0.31-0.7,0.7s0.31,0.7,0.7,0.7s0.7-0.31,0.7-0.7S602.5,661.39,602.12,661.39z"/>
			<path class="st2" d="M649.7,661.39c-0.39,0-0.7,0.31-0.7,0.7s0.31,0.7,0.7,0.7s0.7-0.31,0.7-0.7S650.09,661.39,649.7,661.39z"/>
			<path class="st2" d="M697.29,661.39c-0.39,0-0.7,0.31-0.7,0.7s0.31,0.7,0.7,0.7s0.7-0.31,0.7-0.7S697.68,661.39,697.29,661.39z"
				/>
			<path class="st2" d="M364.17,704.58c-0.39,0-0.7,0.31-0.7,0.7s0.31,0.7,0.7,0.7s0.7-0.31,0.7-0.7
				C364.88,704.9,364.56,704.58,364.17,704.58z"/>
			<path class="st2" d="M411.76,704.58c-0.39,0-0.7,0.31-0.7,0.7s0.31,0.7,0.7,0.7s0.7-0.31,0.7-0.7
				C412.47,704.9,412.15,704.58,411.76,704.58z"/>
			<path class="st2" d="M459.35,704.58c-0.39,0-0.7,0.31-0.7,0.7s0.31,0.7,0.7,0.7s0.7-0.31,0.7-0.7
				C460.05,704.9,459.74,704.58,459.35,704.58z"/>
			<path class="st2" d="M506.94,704.58c-0.39,0-0.7,0.31-0.7,0.7s0.31,0.7,0.7,0.7s0.7-0.31,0.7-0.7
				C507.64,704.9,507.33,704.58,506.94,704.58z"/>
			<path class="st2" d="M554.53,704.58c-0.39,0-0.7,0.31-0.7,0.7s0.31,0.7,0.7,0.7s0.7-0.31,0.7-0.7
				C555.23,704.9,554.92,704.58,554.53,704.58z"/>
			<path class="st2" d="M602.12,704.58c-0.39,0-0.7,0.31-0.7,0.7s0.31,0.7,0.7,0.7s0.7-0.31,0.7-0.7
				C602.82,704.9,602.5,704.58,602.12,704.58z"/>
			<path class="st2" d="M649.7,704.58c-0.39,0-0.7,0.31-0.7,0.7s0.31,0.7,0.7,0.7s0.7-0.31,0.7-0.7
				C650.41,704.9,650.09,704.58,649.7,704.58z"/>
			<path class="st2" d="M697.29,704.58c-0.39,0-0.7,0.31-0.7,0.7s0.31,0.7,0.7,0.7s0.7-0.31,0.7-0.7
				C697.99,704.9,697.68,704.58,697.29,704.58z"/>
			<ellipse class="st2" cx="364.18" cy="748.49" rx="0.7" ry="0.7"/>
			<circle class="st2" cx="411.76" cy="748.48" r="0.7"/>
			<circle class="st2" cx="459.35" cy="748.48" r="0.7"/>
			<circle class="st2" cx="506.94" cy="748.48" r="0.7"/>
			<circle class="st2" cx="554.53" cy="748.48" r="0.7"/>
			<circle class="st2" cx="602.12" cy="748.48" r="0.7"/>
			<path class="st2" d="M649.7,747.77c-0.39,0-0.7,0.31-0.7,0.7s0.31,0.7,0.7,0.7s0.7-0.31,0.7-0.7
				C650.41,748.09,650.09,747.77,649.7,747.77z"/>
			<path class="st2" d="M697.29,747.77c-0.39,0-0.7,0.31-0.7,0.7s0.31,0.7,0.7,0.7s0.7-0.31,0.7-0.7
				C697.99,748.09,697.68,747.77,697.29,747.77z"/>
			<path class="st2" d="M364.17,790.96c-0.39,0-0.7,0.31-0.7,0.7s0.31,0.7,0.7,0.7s0.7-0.31,0.7-0.7S364.56,790.96,364.17,790.96z"
				/>
			<path class="st2" d="M411.76,790.96c-0.39,0-0.7,0.31-0.7,0.7s0.31,0.7,0.7,0.7s0.7-0.31,0.7-0.7S412.15,790.96,411.76,790.96z"
				/>
			<path class="st2" d="M459.35,790.96c-0.39,0-0.7,0.31-0.7,0.7s0.31,0.7,0.7,0.7s0.7-0.31,0.7-0.7S459.74,790.96,459.35,790.96z"
				/>
			<path class="st2" d="M506.94,790.96c-0.39,0-0.7,0.31-0.7,0.7s0.31,0.7,0.7,0.7s0.7-0.31,0.7-0.7S507.33,790.96,506.94,790.96z"
				/>
			<path class="st2" d="M554.53,790.96c-0.39,0-0.7,0.31-0.7,0.7s0.31,0.7,0.7,0.7s0.7-0.31,0.7-0.7S554.92,790.96,554.53,790.96z"
				/>
			<path class="st2" d="M602.12,790.96c-0.39,0-0.7,0.31-0.7,0.7s0.31,0.7,0.7,0.7s0.7-0.31,0.7-0.7S602.5,790.96,602.12,790.96z"/>
			<path class="st2" d="M649.7,790.96c-0.39,0-0.7,0.31-0.7,0.7s0.31,0.7,0.7,0.7s0.7-0.31,0.7-0.7S650.09,790.96,649.7,790.96z"/>
			<path class="st2" d="M697.29,790.96c-0.39,0-0.7,0.31-0.7,0.7s0.31,0.7,0.7,0.7s0.7-0.31,0.7-0.7S697.68,790.96,697.29,790.96z"
				/>
			<ellipse class="st2" cx="364.2" cy="834.85" rx="0.7" ry="0.7"/>
			<circle class="st2" cx="411.76" cy="834.86" r="0.7"/>
			<ellipse class="st2" cx="459.35" cy="834.89" rx="0.7" ry="0.7"/>
			<circle class="st2" cx="506.94" cy="834.86" r="0.7"/>
			<ellipse class="st2" cx="554.48" cy="834.84" rx="0.7" ry="0.7"/>
			<circle class="st2" cx="602.12" cy="834.86" r="0.7"/>
			<path class="st2" d="M649.7,834.15c-0.39,0-0.7,0.31-0.7,0.7s0.31,0.7,0.7,0.7s0.7-0.31,0.7-0.7S650.09,834.15,649.7,834.15z"/>
			<path class="st2" d="M697.29,834.15c-0.39,0-0.7,0.31-0.7,0.7s0.31,0.7,0.7,0.7s0.7-0.31,0.7-0.7S697.68,834.15,697.29,834.15z"
				/>
			<path class="st2" d="M364.17,877.35c-0.39,0-0.7,0.31-0.7,0.7s0.31,0.7,0.7,0.7s0.7-0.31,0.7-0.7
				C364.88,877.66,364.56,877.35,364.17,877.35z"/>
			<path class="st2" d="M411.76,877.35c-0.39,0-0.7,0.31-0.7,0.7s0.31,0.7,0.7,0.7s0.7-0.31,0.7-0.7
				C412.47,877.66,412.15,877.35,411.76,877.35z"/>
			<path class="st2" d="M459.35,877.35c-0.39,0-0.7,0.31-0.7,0.7s0.31,0.7,0.7,0.7s0.7-0.31,0.7-0.7
				C460.05,877.66,459.74,877.35,459.35,877.35z"/>
			<path class="st2" d="M506.94,877.35c-0.39,0-0.7,0.31-0.7,0.7s0.31,0.7,0.7,0.7s0.7-0.31,0.7-0.7S507.33,877.35,506.94,877.35z"
				/>
			<path class="st2" d="M554.53,877.35c-0.39,0-0.7,0.31-0.7,0.7s0.31,0.7,0.7,0.7s0.7-0.31,0.7-0.7
				C555.23,877.66,554.92,877.35,554.53,877.35z"/>
			<path class="st2" d="M602.12,877.35c-0.39,0-0.7,0.31-0.7,0.7s0.31,0.7,0.7,0.7s0.7-0.31,0.7-0.7S602.5,877.35,602.12,877.35z"/>
			<path class="st2" d="M649.7,877.35c-0.39,0-0.7,0.31-0.7,0.7s0.31,0.7,0.7,0.7s0.7-0.31,0.7-0.7
				C650.41,877.66,650.09,877.35,649.7,877.35z"/>
			<path class="st2" d="M697.29,877.35c-0.39,0-0.7,0.31-0.7,0.7s0.31,0.7,0.7,0.7s0.7-0.31,0.7-0.7S697.68,877.35,697.29,877.35z"
				/>
			<path class="st2" d="M364.17,920.54c-0.39,0-0.7,0.31-0.7,0.7s0.31,0.7,0.7,0.7s0.7-0.31,0.7-0.7
				C364.88,920.85,364.56,920.54,364.17,920.54z"/>
			<path class="st2" d="M411.76,920.54c-0.39,0-0.7,0.31-0.7,0.7s0.31,0.7,0.7,0.7s0.7-0.31,0.7-0.7
				C412.47,920.85,412.15,920.54,411.76,920.54z"/>
			<path class="st2" d="M459.35,920.54c-0.39,0-0.7,0.31-0.7,0.7s0.31,0.7,0.7,0.7s0.7-0.31,0.7-0.7
				C460.05,920.85,459.74,920.54,459.35,920.54z"/>
			<path class="st2" d="M506.94,920.54c-0.39,0-0.7,0.31-0.7,0.7s0.31,0.7,0.7,0.7s0.7-0.31,0.7-0.7S507.33,920.54,506.94,920.54z"
				/>
			<path class="st2" d="M554.53,920.54c-0.39,0-0.7,0.31-0.7,0.7s0.31,0.7,0.7,0.7s0.7-0.31,0.7-0.7
				C555.23,920.85,554.92,920.54,554.53,920.54z"/>
			<path class="st2" d="M602.12,920.54c-0.39,0-0.7,0.31-0.7,0.7s0.31,0.7,0.7,0.7s0.7-0.31,0.7-0.7S602.5,920.54,602.12,920.54z"/>
			<path class="st2" d="M649.7,920.54c-0.39,0-0.7,0.31-0.7,0.7s0.31,0.7,0.7,0.7s0.7-0.31,0.7-0.7
				C650.41,920.85,650.09,920.54,649.7,920.54z"/>
			<path class="st2" d="M697.29,920.54c-0.39,0-0.7,0.31-0.7,0.7s0.31,0.7,0.7,0.7s0.7-0.31,0.7-0.7S697.68,920.54,697.29,920.54z"
				/>
		</g>
	</g>
	<g>
		<defs>
			<rect id="SVGID_11_" y="-0.08" width="1920" height="799.66"/>
		</defs>
		<clipPath id="SVGID_12_">
			<use xlink:href="#SVGID_11_"  style="overflow:visible;"/>
		</clipPath>
		<g class="st6">
			<circle class="st2" cx="1352.66" cy="387.91" r="0.36"/>
			<circle class="st2" cx="1377.23" cy="387.91" r="0.36"/>
			<circle class="st2" cx="1401.8" cy="387.91" r="0.36"/>
			<circle class="st2" cx="1426.36" cy="387.91" r="0.36"/>
			<circle class="st2" cx="1450.93" cy="387.91" r="0.36"/>
			<circle class="st2" cx="1475.5" cy="387.91" r="0.36"/>
			<path class="st2" d="M1500.07,387.55c-0.2,0-0.36,0.16-0.36,0.36c0,0.2,0.16,0.36,0.36,0.36s0.36-0.16,0.36-0.36
				C1500.43,387.71,1500.27,387.55,1500.07,387.55z"/>
			<path class="st2" d="M1524.64,388.28c0.2,0,0.36-0.16,0.36-0.36c0-0.2-0.16-0.36-0.36-0.36s-0.36,0.16-0.36,0.36
				C1524.27,388.11,1524.44,388.28,1524.64,388.28z"/>
			<circle class="st2" cx="1352.66" cy="410.21" r="0.36"/>
			<circle class="st2" cx="1377.23" cy="410.21" r="0.36"/>
			<circle class="st2" cx="1401.8" cy="410.21" r="0.36"/>
			<circle class="st2" cx="1426.36" cy="410.21" r="0.36"/>
			<circle class="st7" cx="1450.93" cy="410.21" r="0.36"/>
			<circle class="st2" cx="1475.5" cy="410.21" r="0.36"/>
			<path class="st2" d="M1500.07,409.85c-0.2,0-0.36,0.16-0.36,0.36c0,0.2,0.16,0.36,0.36,0.36s0.36-0.16,0.36-0.36
				C1500.43,410.01,1500.27,409.85,1500.07,409.85z"/>
			<path class="st2" d="M1524.64,409.85c-0.2,0-0.36,0.16-0.36,0.36c0,0.2,0.16,0.36,0.36,0.36s0.36-0.16,0.36-0.36
				S1524.84,409.85,1524.64,409.85z"/>
			<path class="st2" d="M1352.66,432.15c-0.2,0-0.36,0.16-0.36,0.36s0.16,0.36,0.36,0.36s0.36-0.16,0.36-0.36
				S1352.86,432.15,1352.66,432.15z"/>
			<path class="st2" d="M1377.23,432.15c-0.2,0-0.36,0.16-0.36,0.36s0.16,0.36,0.36,0.36s0.36-0.16,0.36-0.36
				S1377.43,432.15,1377.23,432.15z"/>
			<path class="st7" d="M1401.8,432.15c-0.2,0-0.36,0.16-0.36,0.36s0.16,0.36,0.36,0.36s0.36-0.16,0.36-0.36
				S1402,432.15,1401.8,432.15z"/>
			<path class="st2" d="M1426.36,432.15c-0.2,0-0.36,0.16-0.36,0.36s0.16,0.36,0.36,0.36s0.36-0.16,0.36-0.36
				S1426.57,432.15,1426.36,432.15z"/>
			<path class="st2" d="M1450.93,432.15c-0.2,0-0.36,0.16-0.36,0.36s0.16,0.36,0.36,0.36s0.36-0.16,0.36-0.36
				S1451.13,432.15,1450.93,432.15z"/>
			<path class="st2" d="M1475.5,432.15c-0.2,0-0.36,0.16-0.36,0.36s0.16,0.36,0.36,0.36s0.36-0.16,0.36-0.36
				S1475.7,432.15,1475.5,432.15z"/>
			<path class="st2" d="M1500.07,432.15c-0.2,0-0.36,0.16-0.36,0.36s0.16,0.36,0.36,0.36s0.36-0.16,0.36-0.36
				S1500.27,432.15,1500.07,432.15z"/>
			<path class="st2" d="M1524.64,432.15c-0.2,0-0.36,0.16-0.36,0.36s0.16,0.36,0.36,0.36s0.36-0.16,0.36-0.36
				S1524.84,432.15,1524.64,432.15z"/>
			<path class="st2" d="M1352.66,454.45c-0.2,0-0.36,0.16-0.36,0.36s0.16,0.36,0.36,0.36s0.36-0.16,0.36-0.36
				S1352.86,454.45,1352.66,454.45z"/>
			<path class="st2" d="M1377.23,454.45c-0.2,0-0.36,0.16-0.36,0.36s0.16,0.36,0.36,0.36s0.36-0.16,0.36-0.36
				S1377.43,454.45,1377.23,454.45z"/>
			<path class="st7" d="M1401.8,454.45c-0.2,0-0.36,0.16-0.36,0.36s0.16,0.36,0.36,0.36s0.36-0.16,0.36-0.36
				S1402,454.45,1401.8,454.45z"/>
			<path class="st2" d="M1426.36,454.45c-0.2,0-0.36,0.16-0.36,0.36s0.16,0.36,0.36,0.36s0.36-0.16,0.36-0.36
				S1426.57,454.45,1426.36,454.45z"/>
			<path class="st2" d="M1450.93,454.45c-0.2,0-0.36,0.16-0.36,0.36s0.16,0.36,0.36,0.36s0.36-0.16,0.36-0.36
				S1451.13,454.45,1450.93,454.45z"/>
			<path class="st2" d="M1475.5,454.45c-0.2,0-0.36,0.16-0.36,0.36s0.16,0.36,0.36,0.36s0.36-0.16,0.36-0.36
				S1475.7,454.45,1475.5,454.45z"/>
			<path class="st2" d="M1500.07,454.45c-0.2,0-0.36,0.16-0.36,0.36s0.16,0.36,0.36,0.36s0.36-0.16,0.36-0.36
				S1500.27,454.45,1500.07,454.45z"/>
			<path class="st2" d="M1524.64,454.45c-0.2,0-0.36,0.16-0.36,0.36s0.16,0.36,0.36,0.36s0.36-0.16,0.36-0.36
				S1524.84,454.45,1524.64,454.45z"/>
			<circle class="st2" cx="1352.66" cy="477.11" r="0.36"/>
			<circle class="st2" cx="1377.23" cy="477.11" r="0.36"/>
			<circle class="st2" cx="1401.8" cy="477.11" r="0.36"/>
			<circle class="st2" cx="1426.36" cy="477.11" r="0.36"/>
			<circle class="st2" cx="1450.93" cy="477.11" r="0.36"/>
			<circle class="st2" cx="1475.5" cy="477.11" r="0.36"/>
			<path class="st2" d="M1500.07,476.74c-0.2,0-0.36,0.16-0.36,0.36s0.16,0.36,0.36,0.36s0.36-0.16,0.36-0.36
				S1500.27,476.74,1500.07,476.74z"/>
			<path class="st2" d="M1524.64,476.74c-0.2,0-0.36,0.16-0.36,0.36s0.16,0.36,0.36,0.36s0.36-0.16,0.36-0.36
				S1524.84,476.74,1524.64,476.74z"/>
			<path class="st7" d="M1352.66,499.04c-0.2,0-0.36,0.16-0.36,0.36s0.16,0.36,0.36,0.36s0.36-0.16,0.36-0.36
				S1352.86,499.04,1352.66,499.04z"/>
			<path class="st7" d="M1377.23,499.04c-0.2,0-0.36,0.16-0.36,0.36s0.16,0.36,0.36,0.36s0.36-0.16,0.36-0.36
				S1377.43,499.04,1377.23,499.04z"/>
			<path class="st2" d="M1401.8,499.04c-0.2,0-0.36,0.16-0.36,0.36s0.16,0.36,0.36,0.36s0.36-0.16,0.36-0.36
				S1402,499.04,1401.8,499.04z"/>
			<path class="st2" d="M1426.36,499.04c-0.2,0-0.36,0.16-0.36,0.36s0.16,0.36,0.36,0.36s0.36-0.16,0.36-0.36
				S1426.57,499.04,1426.36,499.04z"/>
			<path class="st2" d="M1450.93,499.04c-0.2,0-0.36,0.16-0.36,0.36s0.16,0.36,0.36,0.36s0.36-0.16,0.36-0.36
				S1451.13,499.04,1450.93,499.04z"/>
			<path class="st2" d="M1475.5,499.04c-0.2,0-0.36,0.16-0.36,0.36s0.16,0.36,0.36,0.36s0.36-0.16,0.36-0.36
				S1475.7,499.04,1475.5,499.04z"/>
			<path class="st2" d="M1500.07,499.04c-0.2,0-0.36,0.16-0.36,0.36s0.16,0.36,0.36,0.36s0.36-0.16,0.36-0.36
				S1500.27,499.04,1500.07,499.04z"/>
			<path class="st2" d="M1524.64,499.04c-0.2,0-0.36,0.16-0.36,0.36s0.16,0.36,0.36,0.36s0.36-0.16,0.36-0.36
				S1524.84,499.04,1524.64,499.04z"/>
			<circle class="st2" cx="1352.66" cy="521.7" r="0.36"/>
			<circle class="st2" cx="1377.23" cy="521.7" r="0.36"/>
			<circle class="st2" cx="1401.8" cy="521.7" r="0.36"/>
			<circle class="st2" cx="1426.36" cy="521.7" r="0.36"/>
			<circle class="st2" cx="1450.93" cy="521.7" r="0.36"/>
			<circle class="st2" cx="1475.5" cy="521.7" r="0.36"/>
			<path class="st2" d="M1500.07,521.34c-0.2,0-0.36,0.16-0.36,0.36s0.16,0.36,0.36,0.36s0.36-0.16,0.36-0.36
				S1500.27,521.34,1500.07,521.34z"/>
			<path class="st2" d="M1524.64,521.34c-0.2,0-0.36,0.16-0.36,0.36s0.16,0.36,0.36,0.36s0.36-0.16,0.36-0.36
				S1524.84,521.34,1524.64,521.34z"/>
			<path class="st2" d="M1352.66,543.64c-0.2,0-0.36,0.16-0.36,0.36s0.16,0.36,0.36,0.36s0.36-0.16,0.36-0.36
				S1352.86,543.64,1352.66,543.64z"/>
			<path class="st2" d="M1377.23,543.64c-0.2,0-0.36,0.16-0.36,0.36s0.16,0.36,0.36,0.36s0.36-0.16,0.36-0.36
				S1377.43,543.64,1377.23,543.64z"/>
			<path class="st2" d="M1401.8,543.64c-0.2,0-0.36,0.16-0.36,0.36s0.16,0.36,0.36,0.36s0.36-0.16,0.36-0.36
				S1402,543.64,1401.8,543.64z"/>
			<path class="st2" d="M1426.36,543.64c-0.2,0-0.36,0.16-0.36,0.36s0.16,0.36,0.36,0.36s0.36-0.16,0.36-0.36
				C1426.73,543.8,1426.57,543.64,1426.36,543.64z"/>
			<path class="st2" d="M1450.93,543.64c-0.2,0-0.36,0.16-0.36,0.36s0.16,0.36,0.36,0.36s0.36-0.16,0.36-0.36
				C1451.3,543.8,1451.13,543.64,1450.93,543.64z"/>
			<path class="st2" d="M1475.5,543.64c-0.2,0-0.36,0.16-0.36,0.36s0.16,0.36,0.36,0.36s0.36-0.16,0.36-0.36
				S1475.7,543.64,1475.5,543.64z"/>
			<path class="st2" d="M1500.07,543.64c-0.2,0-0.36,0.16-0.36,0.36s0.16,0.36,0.36,0.36s0.36-0.16,0.36-0.36
				C1500.43,543.8,1500.27,543.64,1500.07,543.64z"/>
			<path class="st2" d="M1524.64,543.64c-0.2,0-0.36,0.16-0.36,0.36s0.16,0.36,0.36,0.36s0.36-0.16,0.36-0.36
				S1524.84,543.64,1524.64,543.64z"/>
			<path class="st2" d="M1352.66,565.93c-0.2,0-0.36,0.16-0.36,0.36s0.16,0.36,0.36,0.36s0.36-0.16,0.36-0.36
				C1353.02,566.1,1352.86,565.93,1352.66,565.93z"/>
			<path class="st2" d="M1377.23,565.93c-0.2,0-0.36,0.16-0.36,0.36s0.16,0.36,0.36,0.36s0.36-0.16,0.36-0.36
				C1377.59,566.1,1377.43,565.93,1377.23,565.93z"/>
			<path class="st2" d="M1401.8,565.93c-0.2,0-0.36,0.16-0.36,0.36s0.16,0.36,0.36,0.36s0.36-0.16,0.36-0.36
				C1402.16,566.1,1402,565.93,1401.8,565.93z"/>
			<path class="st2" d="M1426.36,565.93c-0.2,0-0.36,0.16-0.36,0.36s0.16,0.36,0.36,0.36s0.36-0.16,0.36-0.36
				C1426.73,566.1,1426.57,565.93,1426.36,565.93z"/>
			<path class="st2" d="M1450.93,565.93c-0.2,0-0.36,0.16-0.36,0.36s0.16,0.36,0.36,0.36s0.36-0.16,0.36-0.36
				C1451.3,566.1,1451.13,565.93,1450.93,565.93z"/>
			<path class="st2" d="M1475.5,565.93c-0.2,0-0.36,0.16-0.36,0.36s0.16,0.36,0.36,0.36s0.36-0.16,0.36-0.36
				C1475.86,566.1,1475.7,565.93,1475.5,565.93z"/>
			<path class="st2" d="M1500.07,565.93c-0.2,0-0.36,0.16-0.36,0.36s0.16,0.36,0.36,0.36s0.36-0.16,0.36-0.36
				C1500.43,566.1,1500.27,565.93,1500.07,565.93z"/>
			<path class="st2" d="M1524.64,565.93c-0.2,0-0.36,0.16-0.36,0.36s0.16,0.36,0.36,0.36s0.36-0.16,0.36-0.36
				C1525,566.1,1524.84,565.93,1524.64,565.93z"/>
		</g>
	</g>
	<g>
		<defs>
			<rect id="SVGID_13_" y="-0.08" width="1920" height="799.66"/>
		</defs>
		<clipPath id="SVGID_14_">
			<use xlink:href="#SVGID_13_"  style="overflow:visible;"/>
		</clipPath>
		<polyline class="st8" points="10.33,347.22 10.33,788.56 415.67,788.56 		"/>
	</g>
	<g>
		<defs>
			<rect id="SVGID_15_" y="-0.08" width="1920" height="799.66"/>
		</defs>
		<clipPath id="SVGID_16_">
			<use xlink:href="#SVGID_15_"  style="overflow:visible;"/>
		</clipPath>
		<polyline class="st9" points="36.41,322.93 36.41,764.26 441.74,764.26 		"/>
	</g>
	<g>
		<defs>
			<rect id="SVGID_17_" y="-0.08" width="1920" height="799.66"/>
		</defs>
		<clipPath id="SVGID_18_">
			<use xlink:href="#SVGID_17_"  style="overflow:visible;"/>
		</clipPath>
		<g class="st10">
			
				<rect x="100.24" y="565.07" transform="matrix(0.7071 -0.7071 0.7071 0.7071 -394.0234 293.8873)" class="st11" width="115" height="115"/>
			
				<rect x="181.56" y="565.07" transform="matrix(0.7071 -0.7071 0.7071 0.7071 -370.2056 351.3887)" class="st11" width="115" height="115"/>
			
				<rect x="262.88" y="565.07" transform="matrix(0.7071 -0.7071 0.7071 0.7071 -346.3878 408.8903)" class="st11" width="115" height="115"/>
		</g>
	</g>
	<g>
		<defs>
			<rect id="SVGID_19_" y="-0.08" width="1920" height="799.66"/>
		</defs>
		<clipPath id="SVGID_20_">
			<use xlink:href="#SVGID_19_"  style="overflow:visible;"/>
		</clipPath>
		<g class="st12">
			<g>
				<line class="st13" x1="1265.34" y1="249.11" x2="1558.3" y2="-43.84"/>
				<line class="st13" x1="1266.37" y1="262.63" x2="1571.81" y2="-42.81"/>
				<line class="st13" x1="1267.39" y1="276.15" x2="1585.33" y2="-41.79"/>
				<line class="st13" x1="1268.42" y1="289.66" x2="1598.85" y2="-40.76"/>
				<line class="st13" x1="1269.45" y1="303.18" x2="1612.36" y2="-39.74"/>
				<line class="st13" x1="1270.47" y1="316.7" x2="1625.88" y2="-38.71"/>
				<line class="st13" x1="1271.5" y1="330.22" x2="1639.4" y2="-37.68"/>
				<line class="st13" x1="1272.52" y1="343.73" x2="1652.91" y2="-36.66"/>
				<line class="st13" x1="1273.55" y1="357.25" x2="1666.43" y2="-35.63"/>
				<line class="st13" x1="1274.58" y1="370.77" x2="1679.95" y2="-34.61"/>
				<line class="st13" x1="1275.6" y1="384.28" x2="1693.47" y2="-33.58"/>
				<line class="st13" x1="1276.63" y1="397.8" x2="1706.98" y2="-32.55"/>
			</g>
			<g>
				<polygon class="st2" points="1278.77,395.75 1274.5,400.09 1265.53,248.28 1269.8,243.94 				"/>
			</g>
		</g>
	</g>
	<g>
		<defs>
			
				<rect id="SVGID_21_" x="58.69" y="715.06" transform="matrix(0.7071 -0.7071 0.7071 0.7071 -489.976 1046.8567)" width="1919.98" height="799.65"/>
		</defs>
		<clipPath id="SVGID_22_">
			<use xlink:href="#SVGID_21_"  style="overflow:visible;"/>
		</clipPath>
		
			<rect x="1646.65" y="480.56" transform="matrix(0.7071 -0.7071 0.7071 0.7071 57.1919 1511.0295)" class="st14" width="411.85" height="411.85"/>
	</g>
	<g>
		<defs>
			
				<rect id="SVGID_23_" x="-31.28" y="-745.64" transform="matrix(0.7071 -0.7071 0.7071 0.7071 516.5414 555.4148)" width="1919.98" height="799.65"/>
		</defs>
		<clipPath id="SVGID_24_">
			<use xlink:href="#SVGID_23_"  style="overflow:visible;"/>
		</clipPath>
		
			<rect x="-93.28" y="-72.95" transform="matrix(0.7071 -0.7071 0.7071 0.7071 -32.7614 50.3367)" class="st15" width="275.33" height="275.33"/>
	</g>
	<g>
		<defs>
			
				<rect id="SVGID_25_" x="-140.73" y="-618.97" transform="matrix(0.7071 -0.7071 0.7071 0.7071 394.9142 515.1174)" width="1919.98" height="799.65"/>
		</defs>
		<clipPath id="SVGID_26_">
			<use xlink:href="#SVGID_25_"  style="overflow:visible;"/>
		</clipPath>
		
			<rect x="73.14" y="190.76" transform="matrix(0.7071 -0.7071 0.7071 0.7071 -142.2189 177.0072)" class="st16" width="138.84" height="138.84"/>
	</g>
	<g>
		<defs>
			
				<rect id="SVGID_27_" x="-51.88" y="-601.26" transform="matrix(0.7071 -0.7071 0.7071 0.7071 408.4126 583.133)" width="1919.98" height="799.65"/>
		</defs>
		<clipPath id="SVGID_28_">
			<use xlink:href="#SVGID_27_"  style="overflow:visible;"/>
		</clipPath>
		
			<rect x="164.8" y="118.22" transform="matrix(0.7071 -0.7071 0.7071 0.7071 -53.3658 194.7192)" class="st17" width="87.12" height="87.12"/>
	</g>
	<g>
		<defs>
			
				<rect id="SVGID_29_" x="1.82" y="-599.4" transform="matrix(0.7071 -0.7071 0.7071 0.7071 422.8264 621.6475)" width="1919.98" height="799.65"/>
		</defs>
		<clipPath id="SVGID_30_">
			<use xlink:href="#SVGID_29_"  style="overflow:visible;"/>
		</clipPath>
		
			<rect x="218.65" y="79.08" transform="matrix(0.7071 -0.7071 0.7071 0.7071 0.3303 196.5773)" class="st18" width="37.62" height="37.62"/>
	</g>
	<g>
		<defs>
			
				<rect id="SVGID_31_" x="-10.18" y="-570.43" transform="matrix(0.7071 -0.7071 0.7071 0.7071 398.8281 621.6475)" width="1919.98" height="799.65"/>
		</defs>
		<clipPath id="SVGID_32_">
			<use xlink:href="#SVGID_31_"  style="overflow:visible;"/>
		</clipPath>
		
			<rect x="247.62" y="108.05" transform="matrix(0.7071 -0.7071 0.7071 0.7071 -11.6684 225.547)" class="st19" width="37.62" height="37.62"/>
	</g>
</g>
</svg>
