<?xml version="1.0" encoding="utf-8"?>
<!-- Generator: Adobe Illustrator 24.1.2, SVG Export Plug-In . SVG Version: 6.00 Build 0)  -->
<svg version="1.1" id="Camada_1" xmlns="http://www.w3.org/2000/svg" xmlns:xlink="http://www.w3.org/1999/xlink" x="0px" y="0px"
	 viewBox="0 0 1080 1080" style="enable-background:new 0 0 1080 1080;" xml:space="preserve">
<style type="text/css">
	.st0{fill:#232323;}
	.st1{fill:#FFFFFF;}
</style>
<rect class="st0" width="1080" height="1080"/>
<g>
	<path class="st1" d="M384.51,653.22l99.14,99.14c31.32,31.32,82.11,31.32,113.43,0l156.15-156.15
		c31.32-31.32,31.32-82.11,0.05-113.38L597.14,326.68c-31.38-31.38-82.16-31.38-113.49-0.05L327.5,482.78
		c-31.32,31.32-31.32,82.11,0,113.43L384.51,653.22"/>
	<path class="st1" d="M718.92,143.9l75.69,75.69c15.19,15.19,15.19,39.81,0.01,54.99l-75.7,75.7c-0.93,0.93-1.88,1.79-2.86,2.6
		c-15.28,12.53-37.87,11.66-52.13-2.6l-75.69-75.69c-15.19-15.19-15.18-39.82,0-55l75.7-75.7
		C679.12,128.71,703.73,128.71,718.92,143.9z"/>
	<path class="st1" d="M852.71,497.92l89.55-89.55c11.36-11.36,11.36-29.78,0-41.13l-89.55-89.55c-11.36-11.36-29.78-11.36-41.13,0
		l-89.55,89.55c-11.36,11.36-11.36,29.78,0,41.13l89.55,89.55C822.94,509.28,841.36,509.28,852.71,497.92z"/>
	<path class="st1" d="M358.65,368.61l-88.65-88.65c-11.24-11.24-29.48-11.24-40.72,0l-88.65,88.65c-11.24,11.24-11.24,29.48,0,40.72
		l88.65,88.65c11.24,11.24,29.48,11.24,40.72,0l88.65-88.65C369.89,398.08,369.89,379.85,358.65,368.61z"/>
	<path class="st1" d="M496.99,226.9l-88.65-88.65c-11.24-11.24-29.48-11.24-40.72,0l-88.65,88.65c-11.24,11.24-11.24,29.48,0,40.72
		l88.65,88.65c11.24,11.24,29.48,11.24,40.72,0l88.65-88.65C508.24,256.38,508.24,238.15,496.99,226.9z"/>
	<path class="st1" d="M804.01,810.56l-89.82-89.82c-11.39-11.39-29.86-11.39-41.26,0l-89.82,89.82c-11.39,11.39-11.39,29.86,0,41.26
		l89.82,89.82c11.39,11.39,29.86,11.39,41.26,0l89.82-89.82C815.4,840.43,815.4,821.96,804.01,810.56z"/>
	<path class="st1" d="M941.62,671.52l-88.65-88.65c-11.24-11.24-29.48-11.24-40.72,0l-88.65,88.65c-11.24,11.24-11.24,29.48,0,40.72
		l88.65,88.65c11.24,11.24,29.48,11.24,40.72,0l88.65-88.65C952.86,701,952.86,682.77,941.62,671.52z"/>
	<path class="st1" d="M268.42,800.78l89.55-89.55c11.36-11.36,11.36-29.78,0-41.13l-89.55-89.55c-11.36-11.36-29.78-11.36-41.13,0
		l-89.55,89.55c-11.36,11.36-11.36,29.78,0,41.13l89.55,89.55C238.64,812.14,257.06,812.14,268.42,800.78z"/>
	<path class="st1" d="M409.14,941.5l89.55-89.55c11.36-11.36,11.36-29.78,0-41.13l-89.55-89.55c-11.36-11.36-29.78-11.36-41.13,0
		l-89.55,89.55c-11.36,11.36-11.36,29.78,0,41.13L368,941.5C379.36,952.86,397.78,952.86,409.14,941.5z"/>
	<path class="st1" d="M608.9,295.25l-20.66-20.66c-15.19-15.19-15.18-39.82,0-55l34.22-34.22"/>
	<path class="st1" d="M243.23,499.71c-0.72-0.02-1.44-0.04-2.16-0.04"/>
	<path class="st1" d="M608.9,295.25l-20.66-20.66c-15.19-15.19-15.18-39.82,0-55l34.22-34.22"/>
	<path class="st1" d="M245.35,576.27"/>
	<path class="st1" d="M304.26,538.31c0,0-2,25.56,16.33,50.03l63.92,64.88"/>
</g>
<g>
</g>
<g>
</g>
<g>
</g>
<g>
</g>
<g>
</g>
<g>
</g>
</svg>
