<?xml version="1.0" encoding="utf-8"?>
<!-- Generator: Adobe Illustrator 24.1.2, SVG Export Plug-In . SVG Version: 6.00 Build 0)  -->
<svg version="1.1" id="Camada_1" xmlns="http://www.w3.org/2000/svg" xmlns:xlink="http://www.w3.org/1999/xlink" x="0px" y="0px"
	 viewBox="0 0 1920 1080" style="enable-background:new 0 0 1920 1080;" xml:space="preserve">
<style type="text/css">
	.st0{fill:#0A0A0A;}
	.st1{display:none;}
	.st2{display:inline;fill:#0A0A0A;}
	.st3{display:inline;}
	.st4{display:inline;fill:#FF4B87;}
	.st5{display:inline;fill:#FFFFFF;}
	.st6{display:none;stroke:#FF4B87;stroke-miterlimit:10;}
	.st7{display:none;fill:none;stroke:#FF4B87;stroke-miterlimit:10;}
	.st8{display:inline;fill:none;stroke:#FF4B87;stroke-miterlimit:10;}
	.st9{fill:none;stroke:#FF4B87;stroke-miterlimit:10;}
	.st10{fill:none;stroke:#FF4B87;stroke-miterlimit:10;stroke-dasharray:11.0929,11.0929;}
	.st11{display:inline;fill:none;stroke:#FF4B87;stroke-miterlimit:10;stroke-dasharray:12;}
</style>
<g>
	<rect y="540" width="1920" height="540"/>
	<rect class="st0" width="1920" height="540"/>
</g>
<g class="st1">
	<path class="st2" d="M723.04,558.31c16.54,8.77,29.35,21.08,38.42,36.92c9.07,15.85,13.6,34.14,13.6,54.86
		c0,20.53-4.54,38.77-13.6,54.71c-9.07,15.95-21.93,28.31-38.57,37.07c-16.64,8.77-35.93,13.16-57.85,13.16H586.4V545.16h78.63
		C687.16,545.16,706.49,549.54,723.04,558.31z M706.89,694.94c10.76-10.56,16.14-25.51,16.14-44.85c0-19.33-5.38-34.38-16.14-45.15
		c-10.76-10.76-25.82-16.14-45.15-16.14h-24.22v121.98h24.22C681.08,710.79,696.13,705.51,706.89,694.94z"/>
	<path class="st2" d="M854.88,586.12v42.46h68.47v39.46h-68.47v46.04h77.44v40.96H803.76V545.16h128.56v40.96H854.88z"/>
	<path class="st2" d="M1000.18,749.66c-12.16-4.98-21.88-12.36-29.15-22.13c-7.28-9.76-11.11-21.53-11.51-35.28h54.41
		c0.79,7.77,3.49,13.71,8.07,17.79c4.58,4.09,10.56,6.13,17.94,6.13c7.57,0,13.55-1.74,17.94-5.23c4.38-3.49,6.58-8.32,6.58-14.5
		c0-5.18-1.75-9.46-5.23-12.86c-3.49-3.39-7.77-6.18-12.86-8.37c-5.08-2.19-12.31-4.68-21.68-7.47
		c-13.56-4.19-24.62-8.37-33.19-12.56c-8.57-4.19-15.95-10.36-22.12-18.54c-6.18-8.17-9.27-18.84-9.27-31.99
		c0-19.53,7.07-34.83,21.23-45.89c14.15-11.06,32.59-16.59,55.31-16.59c23.12,0,41.75,5.53,55.91,16.59
		c14.15,11.06,21.72,26.46,22.72,46.19h-55.31c-0.4-6.77-2.89-12.11-7.47-16c-4.59-3.89-10.46-5.83-17.64-5.83
		c-6.18,0-11.17,1.64-14.95,4.93c-3.79,3.29-5.68,8.03-5.68,14.2c0,6.78,3.19,12.06,9.57,15.85c6.38,3.79,16.34,7.88,29.9,12.26
		c13.55,4.59,24.56,8.97,33.04,13.16c8.47,4.19,15.79,10.27,21.98,18.24c6.18,7.97,9.27,18.24,9.27,30.79
		c0,11.96-3.04,22.83-9.12,32.59c-6.08,9.77-14.9,17.54-26.46,23.32c-11.56,5.78-25.22,8.67-40.96,8.67
		C1026.09,757.13,1012.34,754.64,1000.18,749.66z"/>
	<path class="st2" d="M1200.5,545.16v209.88h-51.13V545.16H1200.5z"/>
	<path class="st2" d="M1376.9,611.53c-3.79-6.97-9.22-12.31-16.29-16c-7.08-3.69-15.4-5.53-24.96-5.53
		c-16.55,0-29.8,5.43-39.76,16.29c-9.97,10.87-14.95,25.37-14.95,43.5c0,19.33,5.23,34.43,15.7,45.29
		c10.46,10.87,24.86,16.29,43.2,16.29c12.56,0,23.17-3.19,31.84-9.57c8.67-6.38,15-15.55,18.99-27.51h-64.88v-37.67h111.22v47.54
		c-3.79,12.76-10.22,24.62-19.28,35.58c-9.07,10.96-20.58,19.84-34.53,26.61c-13.95,6.78-29.7,10.17-47.24,10.17
		c-20.73,0-39.22-4.53-55.46-13.6c-16.25-9.07-28.9-21.68-37.97-37.82c-9.07-16.15-13.6-34.58-13.6-55.31
		c0-20.73,4.53-39.21,13.6-55.46c9.07-16.24,21.68-28.9,37.82-37.97c16.15-9.07,34.58-13.6,55.31-13.6
		c25.11,0,46.29,6.08,63.53,18.24c17.24,12.16,28.65,29,34.23,50.53H1376.9z"/>
	<path class="st2" d="M1653.15,755.04h-51.13l-85.51-129.46v129.46h-51.13V545.16h51.13l85.51,130.06V545.16h51.13V755.04z"/>
</g>
<g class="st1">
	<path class="st3" d="M274.99,379.3c8.97-16.24,21.48-28.9,37.52-37.97c16.04-9.07,34.23-13.6,54.56-13.6
		c24.91,0,46.24,6.58,63.98,19.73c17.74,13.16,29.6,31.09,35.58,53.82h-56.21c-4.19-8.77-10.12-15.44-17.79-20.03
		c-7.68-4.58-16.4-6.88-26.16-6.88c-15.75,0-28.51,5.48-38.27,16.44c-9.77,10.96-14.65,25.61-14.65,43.95
		c0,18.34,4.88,32.99,14.65,43.95c9.76,10.96,22.52,16.44,38.27,16.44c9.76,0,18.49-2.29,26.16-6.88
		c7.67-4.58,13.6-11.26,17.79-20.03h56.21c-5.98,22.72-17.84,40.61-35.58,53.67c-17.74,13.06-39.07,19.58-63.98,19.58
		c-20.33,0-38.52-4.53-54.56-13.6c-16.05-9.07-28.55-21.68-37.52-37.82c-8.97-16.15-13.45-34.58-13.45-55.31
		C261.53,414.03,266.02,395.55,274.99,379.3z"/>
	<path class="st3" d="M543.02,528.34c-16.44-9.17-29.5-21.98-39.17-38.42c-9.67-16.44-14.5-34.93-14.5-55.46
		c0-20.53,4.83-38.97,14.5-55.31c9.67-16.34,22.72-29.1,39.17-38.27c16.44-9.17,34.53-13.75,54.27-13.75
		c19.73,0,37.82,4.59,54.26,13.75c16.44,9.17,29.4,21.93,38.87,38.27c9.46,16.35,14.2,34.78,14.2,55.31
		c0,20.53-4.78,39.02-14.35,55.46c-9.57,16.44-22.53,29.25-38.87,38.42c-16.35,9.17-34.38,13.75-54.12,13.75
		C577.55,542.09,559.47,537.51,543.02,528.34z M637.5,478.71c10.06-11.16,15.1-25.91,15.1-44.25c0-18.54-5.04-33.34-15.1-44.4
		c-10.07-11.06-23.47-16.59-40.21-16.59c-16.94,0-30.45,5.48-40.51,16.44c-10.07,10.96-15.1,25.81-15.1,44.55
		c0,18.54,5.03,33.34,15.1,44.4c10.06,11.06,23.57,16.59,40.51,16.59C614.03,495.45,627.43,489.87,637.5,478.71z"/>
	<path class="st3" d="M869.66,343.27c16.54,8.77,29.35,21.08,38.42,36.92c9.07,15.85,13.6,34.14,13.6,54.86
		c0,20.53-4.54,38.77-13.6,54.71c-9.07,15.95-21.93,28.31-38.57,37.07c-16.64,8.77-35.93,13.16-57.85,13.16h-78.63V330.12h78.63
		C833.78,330.12,853.11,334.5,869.66,343.27z M853.51,479.9c10.76-10.56,16.14-25.51,16.14-44.85c0-19.33-5.38-34.38-16.14-45.15
		c-10.76-10.76-25.82-16.15-45.15-16.15h-24.22v121.98h24.22C827.7,495.75,842.75,490.47,853.51,479.9z"/>
	<path class="st3" d="M1001.5,371.08v42.46h68.47V453h-68.47v46.04h77.44V540H950.38V330.12h128.56v40.96H1001.5z"/>
</g>
<g class="st1">
	<circle class="st4" cx="1514.07" cy="-84.25" r="1.67"/>
	<circle class="st4" cx="1576.04" cy="-84.25" r="1.67"/>
	<circle class="st4" cx="1638.01" cy="-84.25" r="1.67"/>
	<circle class="st4" cx="1699.99" cy="-84.25" r="1.67"/>
	<circle class="st4" cx="1761.96" cy="-84.25" r="1.67"/>
	<circle class="st4" cx="1823.93" cy="-84.25" r="1.67"/>
	<circle class="st4" cx="1514.07" cy="-33.15" r="1.67"/>
	<circle class="st4" cx="1576.04" cy="-33.15" r="1.67"/>
	<circle class="st4" cx="1638.01" cy="-33.15" r="1.67"/>
	<circle class="st4" cx="1699.99" cy="-33.15" r="1.67"/>
	<circle class="st4" cx="1761.96" cy="-33.15" r="1.67"/>
	<circle class="st4" cx="1823.93" cy="-33.15" r="1.67"/>
	<circle class="st4" cx="1514.07" cy="17.95" r="1.67"/>
	<circle class="st4" cx="1576.04" cy="17.95" r="1.67"/>
	<circle class="st4" cx="1638.01" cy="17.95" r="1.67"/>
	<circle class="st4" cx="1699.99" cy="17.95" r="1.67"/>
	<circle class="st4" cx="1761.96" cy="17.95" r="1.67"/>
	<circle class="st4" cx="1823.93" cy="17.95" r="1.67"/>
	<circle class="st4" cx="1514.07" cy="69.05" r="1.67"/>
	<circle class="st4" cx="1576.04" cy="69.05" r="1.67"/>
	<circle class="st4" cx="1638.01" cy="69.05" r="1.67"/>
	<circle class="st4" cx="1699.99" cy="69.05" r="1.67"/>
	<circle class="st4" cx="1761.96" cy="69.05" r="1.67"/>
	<circle class="st4" cx="1823.93" cy="69.05" r="1.67"/>
	<circle class="st4" cx="1514.07" cy="120.15" r="1.67"/>
	<circle class="st4" cx="1576.04" cy="120.15" r="1.67"/>
	<circle class="st4" cx="1638.01" cy="120.15" r="1.67"/>
	<circle class="st4" cx="1699.99" cy="120.15" r="1.67"/>
	<circle class="st4" cx="1761.96" cy="120.15" r="1.67"/>
	<circle class="st4" cx="1823.93" cy="120.15" r="1.67"/>
	<circle class="st4" cx="1514.07" cy="171.25" r="1.67"/>
	<circle class="st4" cx="1576.04" cy="171.25" r="1.67"/>
	<circle class="st4" cx="1638.01" cy="171.25" r="1.67"/>
	<circle class="st4" cx="1699.99" cy="171.25" r="1.67"/>
	<circle class="st4" cx="1761.96" cy="171.25" r="1.67"/>
	<circle class="st4" cx="1823.93" cy="171.25" r="1.67"/>
	<circle class="st4" cx="1514.07" cy="222.36" r="1.67"/>
	<circle class="st4" cx="1576.04" cy="222.36" r="1.67"/>
	<circle class="st4" cx="1638.01" cy="222.36" r="1.67"/>
	<circle class="st4" cx="1699.99" cy="222.36" r="1.67"/>
	<circle class="st4" cx="1761.96" cy="222.36" r="1.67"/>
	<circle class="st4" cx="1823.93" cy="222.36" r="1.67"/>
	<circle class="st4" cx="1514.07" cy="273.46" r="1.67"/>
	<circle class="st4" cx="1576.04" cy="273.46" r="1.67"/>
	<circle class="st4" cx="1638.01" cy="273.46" r="1.67"/>
	<circle class="st4" cx="1699.99" cy="273.46" r="1.67"/>
	<circle class="st4" cx="1761.96" cy="273.46" r="1.67"/>
	<circle class="st4" cx="1823.93" cy="273.46" r="1.67"/>
	<circle class="st4" cx="1514.07" cy="324.56" r="1.67"/>
	<circle class="st4" cx="1576.04" cy="324.56" r="1.67"/>
	<circle class="st4" cx="1638.01" cy="324.56" r="1.67"/>
	<circle class="st4" cx="1699.99" cy="324.56" r="1.67"/>
	<circle class="st4" cx="1761.96" cy="324.56" r="1.67"/>
	<circle class="st4" cx="1823.93" cy="324.56" r="1.67"/>
</g>
<g class="st1">
	<circle class="st4" cx="317.36" cy="640.8" r="1.09"/>
	<circle class="st4" cx="317.36" cy="681.3" r="1.09"/>
	<circle class="st4" cx="317.36" cy="721.79" r="1.09"/>
	<circle class="st4" cx="317.36" cy="762.28" r="1.09"/>
	<circle class="st4" cx="317.36" cy="802.78" r="1.09"/>
	<circle class="st4" cx="317.36" cy="843.27" r="1.09"/>
	<circle class="st4" cx="283.97" cy="640.8" r="1.09"/>
	<circle class="st4" cx="283.97" cy="681.3" r="1.09"/>
	<circle class="st4" cx="283.97" cy="721.79" r="1.09"/>
	<circle class="st4" cx="283.97" cy="762.28" r="1.09"/>
	<circle class="st4" cx="283.97" cy="802.78" r="1.09"/>
	<circle class="st4" cx="283.97" cy="843.27" r="1.09"/>
	<circle class="st4" cx="250.58" cy="640.8" r="1.09"/>
	<circle class="st4" cx="250.58" cy="681.3" r="1.09"/>
	<circle class="st4" cx="250.58" cy="721.79" r="1.09"/>
	<circle class="st4" cx="250.58" cy="762.28" r="1.09"/>
	<circle class="st4" cx="250.58" cy="802.78" r="1.09"/>
	<circle class="st4" cx="250.58" cy="843.27" r="1.09"/>
	<circle class="st4" cx="217.19" cy="640.8" r="1.09"/>
	<circle class="st4" cx="217.19" cy="681.3" r="1.09"/>
	<circle class="st4" cx="217.19" cy="721.79" r="1.09"/>
	<circle class="st4" cx="217.19" cy="762.28" r="1.09"/>
	<circle class="st4" cx="217.19" cy="802.78" r="1.09"/>
	<circle class="st4" cx="217.19" cy="843.27" r="1.09"/>
	<circle class="st4" cx="183.79" cy="640.8" r="1.09"/>
	<circle class="st4" cx="183.79" cy="681.3" r="1.09"/>
	<circle class="st4" cx="183.79" cy="721.79" r="1.09"/>
	<circle class="st4" cx="183.79" cy="762.28" r="1.09"/>
	<circle class="st4" cx="183.79" cy="802.78" r="1.09"/>
	<circle class="st4" cx="183.79" cy="843.27" r="1.09"/>
	<circle class="st4" cx="150.4" cy="640.8" r="1.09"/>
	<circle class="st4" cx="150.4" cy="681.3" r="1.09"/>
	<circle class="st4" cx="150.4" cy="721.79" r="1.09"/>
	<circle class="st4" cx="150.4" cy="762.28" r="1.09"/>
	<circle class="st4" cx="150.4" cy="802.78" r="1.09"/>
	<circle class="st4" cx="150.4" cy="843.27" r="1.09"/>
	<circle class="st4" cx="117.01" cy="640.8" r="1.09"/>
	<circle class="st4" cx="117.01" cy="681.3" r="1.09"/>
	<circle class="st4" cx="117.01" cy="721.79" r="1.09"/>
	<circle class="st4" cx="117.01" cy="762.28" r="1.09"/>
	<circle class="st4" cx="117.01" cy="802.78" r="1.09"/>
	<circle class="st4" cx="117.01" cy="843.27" r="1.09"/>
	<circle class="st4" cx="83.62" cy="640.8" r="1.09"/>
	<circle class="st4" cx="83.62" cy="681.3" r="1.09"/>
	<circle class="st4" cx="83.62" cy="721.79" r="1.09"/>
	<circle class="st4" cx="83.62" cy="762.28" r="1.09"/>
	<circle class="st4" cx="83.62" cy="802.78" r="1.09"/>
	<circle class="st4" cx="83.62" cy="843.27" r="1.09"/>
	<circle class="st4" cx="50.23" cy="640.8" r="1.09"/>
	<circle class="st4" cx="50.23" cy="681.3" r="1.09"/>
	<circle class="st4" cx="50.23" cy="721.79" r="1.09"/>
	<circle class="st4" cx="50.23" cy="762.28" r="1.09"/>
	<circle class="st4" cx="50.23" cy="802.78" r="1.09"/>
	<circle class="st4" cx="50.23" cy="843.27" r="1.09"/>
</g>
<g class="st1">
	<circle class="st5" cx="1783.96" cy="956.41" r="1.09"/>
	<circle class="st5" cx="1783.96" cy="996.9" r="1.09"/>
	<circle class="st5" cx="1783.96" cy="1037.39" r="1.09"/>
	<circle class="st5" cx="1783.96" cy="1077.89" r="1.09"/>
	<circle class="st5" cx="1783.96" cy="1118.38" r="1.09"/>
	<circle class="st5" cx="1783.96" cy="1158.88" r="1.09"/>
	<circle class="st5" cx="1750.57" cy="956.41" r="1.09"/>
	<circle class="st5" cx="1750.57" cy="996.9" r="1.09"/>
	<circle class="st5" cx="1750.57" cy="1037.39" r="1.09"/>
	<circle class="st5" cx="1750.57" cy="1077.89" r="1.09"/>
	<circle class="st5" cx="1750.57" cy="1118.38" r="1.09"/>
	<circle class="st5" cx="1750.57" cy="1158.88" r="1.09"/>
	<circle class="st5" cx="1717.18" cy="956.41" r="1.09"/>
	<circle class="st5" cx="1717.18" cy="996.9" r="1.09"/>
	<circle class="st5" cx="1717.18" cy="1037.39" r="1.09"/>
	<circle class="st5" cx="1717.18" cy="1077.89" r="1.09"/>
	<circle class="st5" cx="1717.18" cy="1118.38" r="1.09"/>
	<circle class="st5" cx="1717.18" cy="1158.88" r="1.09"/>
	<circle class="st5" cx="1683.79" cy="956.41" r="1.09"/>
	<circle class="st5" cx="1683.79" cy="996.9" r="1.09"/>
	<circle class="st5" cx="1683.79" cy="1037.39" r="1.09"/>
	<circle class="st5" cx="1683.79" cy="1077.89" r="1.09"/>
	<circle class="st5" cx="1683.79" cy="1118.38" r="1.09"/>
	<circle class="st5" cx="1683.79" cy="1158.88" r="1.09"/>
	<circle class="st5" cx="1650.39" cy="956.41" r="1.09"/>
	<circle class="st5" cx="1650.39" cy="996.9" r="1.09"/>
	<circle class="st5" cx="1650.39" cy="1037.39" r="1.09"/>
	<circle class="st5" cx="1650.39" cy="1077.89" r="1.09"/>
	<circle class="st5" cx="1650.39" cy="1118.38" r="1.09"/>
	<circle class="st5" cx="1650.39" cy="1158.88" r="1.09"/>
	<circle class="st5" cx="1617" cy="956.41" r="1.09"/>
	<circle class="st5" cx="1617" cy="996.9" r="1.09"/>
	<circle class="st5" cx="1617" cy="1037.39" r="1.09"/>
	<circle class="st5" cx="1617" cy="1077.89" r="1.09"/>
	<circle class="st5" cx="1617" cy="1118.38" r="1.09"/>
	<circle class="st5" cx="1617" cy="1158.88" r="1.09"/>
	<circle class="st5" cx="1583.61" cy="956.41" r="1.09"/>
	<circle class="st5" cx="1583.61" cy="996.9" r="1.09"/>
	<circle class="st5" cx="1583.61" cy="1037.39" r="1.09"/>
	<circle class="st5" cx="1583.61" cy="1077.89" r="1.09"/>
	<circle class="st5" cx="1583.61" cy="1118.38" r="1.09"/>
	<circle class="st5" cx="1583.61" cy="1158.88" r="1.09"/>
	<circle class="st5" cx="1550.22" cy="956.41" r="1.09"/>
	<circle class="st5" cx="1550.22" cy="996.9" r="1.09"/>
	<circle class="st5" cx="1550.22" cy="1037.39" r="1.09"/>
	<circle class="st5" cx="1550.22" cy="1077.89" r="1.09"/>
	<circle class="st5" cx="1550.22" cy="1118.38" r="1.09"/>
	<circle class="st5" cx="1550.22" cy="1158.88" r="1.09"/>
	<circle class="st5" cx="1516.83" cy="956.41" r="1.09"/>
	<circle class="st5" cx="1516.83" cy="996.9" r="1.09"/>
	<circle class="st5" cx="1516.83" cy="1037.39" r="1.09"/>
	<circle class="st5" cx="1516.83" cy="1077.89" r="1.09"/>
	<circle class="st5" cx="1516.83" cy="1118.38" r="1.09"/>
	<circle class="st5" cx="1516.83" cy="1158.88" r="1.09"/>
</g>
<path class="st6" d="M772.4,312.4H118.48c-8.92,0-16.15-7.23-16.15-16.15V149c0-8.92,7.23-16.15,16.15-16.15H772.4
	c8.92,0,16.15,7.23,16.15,16.15v147.25C788.56,305.17,781.32,312.4,772.4,312.4z"/>
<g class="st1">
	<path class="st5" d="M165.6,202.88h-9.16c0.07,1.13,0.46,2.01,1.16,2.65c0.7,0.63,1.56,0.95,2.56,0.95c0.82,0,1.51-0.19,2.06-0.58
		c0.55-0.38,0.94-0.9,1.16-1.54h2.05c-0.31,1.1-0.92,2-1.84,2.69s-2.06,1.04-3.43,1.04c-1.09,0-2.06-0.24-2.92-0.73
		c-0.86-0.49-1.53-1.18-2.02-2.08c-0.49-0.9-0.73-1.94-0.73-3.13c0-1.19,0.24-2.22,0.71-3.12c0.47-0.89,1.14-1.58,2-2.06
		c0.86-0.48,1.84-0.72,2.96-0.72c1.09,0,2.05,0.24,2.89,0.71c0.84,0.47,1.48,1.13,1.93,1.96c0.45,0.83,0.68,1.77,0.68,2.81
		C165.66,202.09,165.64,202.47,165.6,202.88z M163.21,199.46c-0.32-0.52-0.76-0.92-1.31-1.19c-0.55-0.27-1.16-0.41-1.83-0.41
		c-0.96,0-1.78,0.31-2.46,0.92c-0.68,0.61-1.06,1.46-1.16,2.55h7.24C163.7,200.61,163.54,199.98,163.21,199.46z"/>
	<path class="st5" d="M174.16,207.9l-2.72-4.27l-2.61,4.27h-1.99l3.7-5.69l-3.7-5.77h2.15l2.72,4.25l2.59-4.25h1.99l-3.68,5.67
		l3.7,5.79H174.16z"/>
	<path class="st5" d="M181.78,196.91c0.75-0.44,1.61-0.66,2.6-0.66c1.02,0,1.94,0.24,2.77,0.73c0.83,0.49,1.48,1.18,1.96,2.06
		c0.47,0.89,0.71,1.91,0.71,3.09c0,1.16-0.24,2.19-0.71,3.1c-0.47,0.91-1.13,1.61-1.96,2.11c-0.83,0.5-1.75,0.75-2.77,0.75
		c-0.98,0-1.84-0.22-2.58-0.66c-0.75-0.44-1.31-0.99-1.71-1.64v7.55h-1.9v-16.9h1.9v2.11C180.47,197.89,181.03,197.35,181.78,196.91
		z M187.35,199.87c-0.35-0.64-0.82-1.13-1.41-1.46c-0.59-0.33-1.24-0.5-1.96-0.5c-0.7,0-1.34,0.17-1.93,0.51
		c-0.59,0.34-1.07,0.84-1.42,1.49c-0.36,0.65-0.53,1.4-0.53,2.25c0,0.86,0.18,1.62,0.53,2.27c0.36,0.65,0.83,1.14,1.42,1.49
		c0.59,0.34,1.24,0.51,1.93,0.51c0.71,0,1.36-0.17,1.96-0.51s1.06-0.84,1.41-1.49c0.35-0.65,0.52-1.41,0.52-2.29
		C187.88,201.26,187.7,200.51,187.35,199.87z"/>
	<path class="st5" d="M194.41,207.36c-0.87-0.49-1.56-1.18-2.05-2.08c-0.5-0.9-0.74-1.94-0.74-3.13c0-1.17,0.25-2.21,0.76-3.11
		c0.51-0.9,1.2-1.59,2.08-2.07c0.88-0.48,1.86-0.72,2.95-0.72s2.07,0.24,2.95,0.72c0.88,0.48,1.57,1.17,2.08,2.06
		c0.51,0.89,0.76,1.93,0.76,3.12c0,1.19-0.26,2.23-0.78,3.13c-0.52,0.9-1.23,1.59-2.12,2.08c-0.89,0.49-1.88,0.73-2.97,0.73
		C196.26,208.09,195.29,207.84,194.41,207.36z M199.26,205.93c0.6-0.32,1.08-0.8,1.45-1.44c0.37-0.64,0.55-1.42,0.55-2.34
		s-0.18-1.7-0.54-2.34c-0.36-0.64-0.84-1.12-1.42-1.43c-0.59-0.31-1.22-0.47-1.9-0.47c-0.7,0-1.34,0.16-1.91,0.47
		c-0.58,0.31-1.04,0.79-1.39,1.43c-0.35,0.64-0.52,1.42-0.52,2.34c0,0.93,0.17,1.72,0.51,2.36c0.34,0.64,0.8,1.12,1.37,1.43
		c0.57,0.31,1.2,0.47,1.88,0.47S198.66,206.25,199.26,205.93z"/>
	<path class="st5" d="M209.06,196.77c0.62-0.36,1.38-0.54,2.27-0.54v1.97h-0.5c-2.13,0-3.2,1.16-3.2,3.47v6.23h-1.9v-11.46h1.9v1.86
		C207.96,197.64,208.44,197.13,209.06,196.77z"/>
	<path class="st5" d="M215.84,198.01v6.76c0,0.56,0.12,0.95,0.36,1.18c0.24,0.23,0.65,0.35,1.23,0.35h1.4v1.61h-1.72
		c-1.06,0-1.85-0.24-2.38-0.73s-0.79-1.29-0.79-2.41v-6.76h-1.48v-1.57h1.48v-2.89h1.9v2.89h2.99v1.57H215.84z"/>
	<path class="st5" d="M226.72,199.04c0.47-0.89,1.13-1.57,1.96-2.06c0.83-0.49,1.76-0.73,2.79-0.73c0.89,0,1.72,0.21,2.49,0.62
		c0.77,0.41,1.35,0.95,1.76,1.62v-6.07h1.92v15.48h-1.92v-2.15c-0.38,0.68-0.93,1.24-1.67,1.68c-0.74,0.44-1.6,0.66-2.59,0.66
		c-1.02,0-1.94-0.25-2.77-0.75s-1.48-1.21-1.96-2.11c-0.47-0.91-0.71-1.94-0.71-3.1C226.01,200.95,226.25,199.93,226.72,199.04z
		 M235.19,199.89c-0.35-0.64-0.82-1.13-1.41-1.47c-0.59-0.34-1.24-0.51-1.96-0.51c-0.71,0-1.36,0.17-1.95,0.5
		c-0.59,0.33-1.05,0.82-1.4,1.46c-0.35,0.64-0.52,1.4-0.52,2.26c0,0.88,0.17,1.64,0.52,2.29s0.82,1.14,1.4,1.49
		c0.59,0.34,1.23,0.51,1.95,0.51c0.71,0,1.36-0.17,1.96-0.51s1.06-0.84,1.41-1.49c0.35-0.65,0.52-1.4,0.52-2.27
		S235.54,200.53,235.19,199.89z"/>
	<path class="st5" d="M251.26,202.88h-9.16c0.07,1.13,0.46,2.01,1.16,2.65c0.7,0.63,1.56,0.95,2.56,0.95c0.82,0,1.51-0.19,2.06-0.58
		c0.55-0.38,0.94-0.9,1.16-1.54h2.05c-0.31,1.1-0.92,2-1.84,2.69s-2.06,1.04-3.43,1.04c-1.09,0-2.06-0.24-2.92-0.73
		c-0.86-0.49-1.53-1.18-2.02-2.08c-0.49-0.9-0.73-1.94-0.73-3.13c0-1.19,0.24-2.22,0.71-3.12c0.47-0.89,1.14-1.58,2-2.06
		c0.86-0.48,1.84-0.72,2.96-0.72c1.09,0,2.05,0.24,2.89,0.71c0.84,0.47,1.48,1.13,1.93,1.96c0.45,0.83,0.68,1.77,0.68,2.81
		C251.32,202.09,251.3,202.47,251.26,202.88z M248.87,199.46c-0.32-0.52-0.76-0.92-1.31-1.19c-0.55-0.27-1.16-0.41-1.83-0.41
		c-0.96,0-1.78,0.31-2.46,0.92c-0.68,0.61-1.06,1.46-1.16,2.55h7.24C249.35,200.61,249.19,199.98,248.87,199.46z"/>
	<path class="st5" d="M258.5,198.01h-2.41v9.89h-1.9v-9.89h-1.49v-1.57h1.49v-0.82c0-1.28,0.33-2.22,0.99-2.81
		c0.66-0.59,1.73-0.89,3.19-0.89v1.59c-0.84,0-1.43,0.16-1.77,0.49c-0.34,0.33-0.51,0.87-0.51,1.62v0.82h2.41V198.01z"/>
	<path class="st5" d="M260.71,199.04c0.47-0.89,1.13-1.57,1.96-2.06c0.83-0.49,1.75-0.73,2.77-0.73c1,0,1.88,0.22,2.61,0.65
		c0.74,0.43,1.29,0.98,1.65,1.63v-2.09h1.92v11.46h-1.92v-2.13c-0.38,0.67-0.94,1.22-1.68,1.66s-1.61,0.66-2.6,0.66
		c-1.02,0-1.94-0.25-2.76-0.75c-0.82-0.5-1.47-1.21-1.95-2.11c-0.47-0.91-0.71-1.94-0.71-3.1
		C260,200.95,260.24,199.93,260.71,199.04z M269.18,199.89c-0.35-0.64-0.82-1.13-1.41-1.47c-0.59-0.34-1.24-0.51-1.96-0.51
		c-0.71,0-1.36,0.17-1.95,0.5c-0.59,0.33-1.05,0.82-1.4,1.46c-0.35,0.64-0.52,1.4-0.52,2.26c0,0.88,0.17,1.64,0.52,2.29
		s0.82,1.14,1.4,1.49c0.59,0.34,1.23,0.51,1.95,0.51c0.71,0,1.36-0.17,1.96-0.51s1.06-0.84,1.41-1.49c0.35-0.65,0.52-1.4,0.52-2.27
		S269.53,200.53,269.18,199.89z"/>
	<path class="st5" d="M285.02,196.44v11.46h-1.9v-1.69c-0.36,0.59-0.87,1.04-1.52,1.37s-1.36,0.49-2.14,0.49
		c-0.89,0-1.69-0.18-2.41-0.55c-0.71-0.37-1.27-0.92-1.68-1.66s-0.62-1.64-0.62-2.7v-6.71h1.88v6.46c0,1.13,0.29,2,0.86,2.6
		c0.57,0.61,1.35,0.91,2.34,0.91c1.02,0,1.82-0.31,2.41-0.94c0.59-0.63,0.88-1.54,0.88-2.74v-6.3H285.02z"/>
	<path class="st5" d="M290.14,192.42v15.48h-1.9v-15.48H290.14z"/>
	<path class="st5" d="M295.71,198.01v6.76c0,0.56,0.12,0.95,0.36,1.18c0.24,0.23,0.65,0.35,1.23,0.35h1.4v1.61h-1.72
		c-1.06,0-1.85-0.24-2.38-0.73s-0.79-1.29-0.79-2.41v-6.76h-1.48v-1.57h1.48v-2.89h1.9v2.89h2.99v1.57H295.71z"/>
	<path class="st5" d="M311.25,198.01h-2.41v9.89h-1.9v-9.89h-1.49v-1.57h1.49v-0.82c0-1.28,0.33-2.22,0.99-2.81
		c0.66-0.59,1.73-0.89,3.19-0.89v1.59c-0.84,0-1.43,0.16-1.77,0.49c-0.34,0.33-0.51,0.87-0.51,1.62v0.82h2.41V198.01z"/>
	<path class="st5" d="M323.63,196.44v11.46h-1.9v-1.69c-0.36,0.59-0.87,1.04-1.52,1.37s-1.36,0.49-2.14,0.49
		c-0.89,0-1.69-0.18-2.41-0.55c-0.71-0.37-1.27-0.92-1.68-1.66s-0.62-1.64-0.62-2.7v-6.71h1.88v6.46c0,1.13,0.29,2,0.86,2.6
		c0.57,0.61,1.35,0.91,2.34,0.91c1.02,0,1.82-0.31,2.41-0.94c0.59-0.63,0.88-1.54,0.88-2.74v-6.3H323.63z"/>
	<path class="st5" d="M335.83,197.49c0.86,0.84,1.3,2.06,1.3,3.65v6.76h-1.88v-6.48c0-1.14-0.29-2.02-0.86-2.63
		c-0.57-0.61-1.35-0.91-2.34-0.91c-1,0-1.8,0.31-2.4,0.94c-0.59,0.63-0.89,1.54-0.89,2.74v6.34h-1.9v-11.46h1.9v1.63
		c0.38-0.59,0.89-1.04,1.54-1.36s1.36-0.48,2.14-0.48C333.83,196.23,334.96,196.65,335.83,197.49z"/>
	<path class="st5" d="M340.24,199.04c0.47-0.89,1.13-1.57,1.98-2.06c0.84-0.49,1.81-0.73,2.9-0.73c1.41,0,2.57,0.34,3.48,1.02
		c0.91,0.68,1.52,1.63,1.81,2.84h-2.05c-0.2-0.7-0.58-1.25-1.14-1.65c-0.56-0.4-1.27-0.61-2.1-0.61c-1.09,0-1.97,0.37-2.64,1.12
		c-0.67,0.75-1,1.8-1,3.17c0,1.38,0.33,2.45,1,3.2c0.67,0.75,1.55,1.13,2.64,1.13c0.84,0,1.53-0.2,2.09-0.59
		c0.56-0.39,0.94-0.95,1.15-1.67h2.05c-0.31,1.17-0.92,2.11-1.84,2.81c-0.92,0.7-2.07,1.06-3.45,1.06c-1.09,0-2.05-0.24-2.9-0.73
		c-0.84-0.49-1.5-1.18-1.98-2.07c-0.47-0.89-0.71-1.94-0.71-3.14C339.53,200.96,339.77,199.93,340.24,199.04z"/>
	<path class="st5" d="M355.26,198.01v6.76c0,0.56,0.12,0.95,0.36,1.18c0.24,0.23,0.65,0.35,1.23,0.35h1.4v1.61h-1.72
		c-1.06,0-1.85-0.24-2.38-0.73s-0.79-1.29-0.79-2.41v-6.76h-1.48v-1.57h1.48v-2.89h1.9v2.89h2.99v1.57H355.26z"/>
	<path class="st5" d="M360.62,194.2c-0.25-0.25-0.38-0.56-0.38-0.92s0.13-0.67,0.38-0.92s0.56-0.38,0.92-0.38
		c0.35,0,0.65,0.13,0.89,0.38c0.24,0.25,0.37,0.56,0.37,0.92s-0.12,0.67-0.37,0.92c-0.24,0.25-0.54,0.38-0.89,0.38
		C361.17,194.57,360.87,194.45,360.62,194.2z M362.46,196.44v11.46h-1.9v-11.46H362.46z"/>
	<path class="st5" d="M367.78,207.36c-0.87-0.49-1.56-1.18-2.05-2.08c-0.5-0.9-0.74-1.94-0.74-3.13c0-1.17,0.25-2.21,0.76-3.11
		c0.51-0.9,1.2-1.59,2.08-2.07c0.88-0.48,1.86-0.72,2.95-0.72s2.07,0.24,2.95,0.72c0.88,0.48,1.57,1.17,2.08,2.06
		c0.51,0.89,0.76,1.93,0.76,3.12c0,1.19-0.26,2.23-0.78,3.13c-0.52,0.9-1.23,1.59-2.12,2.08c-0.89,0.49-1.88,0.73-2.97,0.73
		C369.62,208.09,368.65,207.84,367.78,207.36z M372.62,205.93c0.6-0.32,1.08-0.8,1.45-1.44c0.37-0.64,0.55-1.42,0.55-2.34
		s-0.18-1.7-0.54-2.34c-0.36-0.64-0.84-1.12-1.42-1.43c-0.59-0.31-1.22-0.47-1.9-0.47c-0.7,0-1.34,0.16-1.91,0.47
		c-0.58,0.31-1.04,0.79-1.39,1.43c-0.35,0.64-0.52,1.42-0.52,2.34c0,0.93,0.17,1.72,0.51,2.36c0.34,0.64,0.8,1.12,1.37,1.43
		c0.57,0.31,1.2,0.47,1.88,0.47S372.02,206.25,372.62,205.93z"/>
	<path class="st5" d="M388.06,197.49c0.86,0.84,1.3,2.06,1.3,3.65v6.76h-1.88v-6.48c0-1.14-0.29-2.02-0.86-2.63
		c-0.57-0.61-1.35-0.91-2.34-0.91c-1,0-1.8,0.31-2.4,0.94c-0.59,0.63-0.89,1.54-0.89,2.74v6.34h-1.9v-11.46h1.9v1.63
		c0.38-0.59,0.89-1.04,1.54-1.36s1.36-0.48,2.14-0.48C386.07,196.23,387.2,196.65,388.06,197.49z"/>
	<path class="st5" d="M406.68,204.66h-6.36l-1.17,3.24h-2.01l5.27-14.5h2.2l5.25,14.5h-2.01L406.68,204.66z M406.13,203.11
		l-2.64-7.36l-2.64,7.36H406.13z"/>
	<path class="st5" d="M415.75,196.91c0.75-0.44,1.61-0.66,2.6-0.66c1.02,0,1.94,0.24,2.77,0.73c0.83,0.49,1.48,1.18,1.96,2.06
		c0.47,0.89,0.71,1.91,0.71,3.09c0,1.16-0.24,2.19-0.71,3.1c-0.47,0.91-1.13,1.61-1.96,2.11c-0.83,0.5-1.75,0.75-2.77,0.75
		c-0.98,0-1.84-0.22-2.58-0.66c-0.75-0.44-1.31-0.99-1.71-1.64v7.55h-1.9v-16.9h1.9v2.11C414.44,197.89,415,197.35,415.75,196.91z
		 M421.32,199.87c-0.35-0.64-0.82-1.13-1.41-1.46c-0.59-0.33-1.24-0.5-1.96-0.5c-0.7,0-1.34,0.17-1.93,0.51
		c-0.59,0.34-1.07,0.84-1.42,1.49c-0.36,0.65-0.53,1.4-0.53,2.25c0,0.86,0.18,1.62,0.53,2.27c0.36,0.65,0.83,1.14,1.42,1.49
		c0.59,0.34,1.24,0.51,1.93,0.51c0.71,0,1.36-0.17,1.96-0.51s1.06-0.84,1.41-1.49c0.35-0.65,0.52-1.41,0.52-2.29
		C421.84,201.26,421.67,200.51,421.32,199.87z"/>
	<path class="st5" d="M429.89,196.91c0.75-0.44,1.61-0.66,2.6-0.66c1.02,0,1.94,0.24,2.77,0.73c0.83,0.49,1.48,1.18,1.96,2.06
		c0.47,0.89,0.71,1.91,0.71,3.09c0,1.16-0.24,2.19-0.71,3.1c-0.47,0.91-1.13,1.61-1.96,2.11c-0.83,0.5-1.75,0.75-2.77,0.75
		c-0.98,0-1.84-0.22-2.58-0.66c-0.75-0.44-1.31-0.99-1.71-1.64v7.55h-1.9v-16.9h1.9v2.11C428.58,197.89,429.14,197.35,429.89,196.91
		z M435.46,199.87c-0.35-0.64-0.82-1.13-1.41-1.46c-0.59-0.33-1.24-0.5-1.96-0.5c-0.7,0-1.34,0.17-1.93,0.51
		c-0.59,0.34-1.07,0.84-1.42,1.49c-0.36,0.65-0.53,1.4-0.53,2.25c0,0.86,0.18,1.62,0.53,2.27c0.36,0.65,0.83,1.14,1.42,1.49
		c0.59,0.34,1.24,0.51,1.93,0.51c0.71,0,1.36-0.17,1.96-0.51s1.06-0.84,1.41-1.49c0.35-0.65,0.52-1.41,0.52-2.29
		C435.98,201.26,435.81,200.51,435.46,199.87z"/>
	<path class="st5" d="M442.21,206.79c-0.75-2.02-1.12-4.2-1.12-6.55c0-2.4,0.39-4.64,1.18-6.73c0.79-2.08,1.91-3.8,3.38-5.16h1.99
		v0.19c-1.56,1.46-2.74,3.23-3.52,5.28c-0.79,2.06-1.18,4.19-1.18,6.41c0,2.16,0.37,4.23,1.12,6.19c0.75,1.97,1.84,3.69,3.27,5.17
		v0.19h-1.99C443.99,210.48,442.95,208.81,442.21,206.79z"/>
	<path class="st5" d="M449.33,211.79v-0.19c1.44-1.48,2.53-3.2,3.27-5.17c0.75-1.97,1.12-4.03,1.12-6.19c0-2.22-0.39-4.35-1.18-6.41
		c-0.79-2.06-1.96-3.82-3.52-5.28v-0.19H451c1.46,1.35,2.59,3.07,3.38,5.16c0.79,2.08,1.18,4.33,1.18,6.73
		c0,2.34-0.37,4.53-1.12,6.55c-0.75,2.02-1.79,3.69-3.13,5H449.33z"/>
	<path class="st5" d="M465.6,199.34c1.42-0.26,2.13-1,2.13-2.2c0-0.53-0.07-1.44-0.21-2.72c-0.14-1.37-0.21-2.36-0.21-2.97
		c0-1,0.28-1.77,0.85-2.3c0.56-0.53,1.32-0.79,2.27-0.79h1.21v1.65h-0.86c-0.54,0-0.95,0.12-1.21,0.37c-0.27,0.24-0.4,0.65-0.4,1.2
		c0,0.4,0.03,0.9,0.08,1.5s0.09,0.99,0.1,1.2c0.14,1.34,0.21,2.31,0.21,2.93c0,0.74-0.19,1.36-0.55,1.85
		c-0.37,0.5-0.94,0.83-1.71,0.99v0.04c0.77,0.17,1.33,0.5,1.71,1c0.37,0.5,0.55,1.12,0.55,1.86c0,0.61-0.07,1.59-0.21,2.93
		c-0.01,0.21-0.05,0.61-0.1,1.2s-0.08,1.09-0.08,1.5c0,0.56,0.13,0.96,0.4,1.2c0.26,0.24,0.67,0.37,1.21,0.37h0.86v1.65h-1.21
		c-0.95,0-1.7-0.27-2.27-0.79c-0.56-0.53-0.85-1.3-0.85-2.3c0-0.61,0.07-1.6,0.21-2.97c0.14-1.28,0.21-2.19,0.21-2.72
		c0-1.2-0.71-1.93-2.13-2.2V199.34z"/>
	<path class="st4" d="M188.71,224.14c0.47-0.89,1.13-1.57,1.98-2.06c0.84-0.49,1.81-0.73,2.9-0.73c1.41,0,2.57,0.34,3.48,1.02
		c0.91,0.68,1.52,1.63,1.81,2.84h-2.05c-0.2-0.7-0.58-1.25-1.14-1.65c-0.56-0.4-1.27-0.61-2.1-0.61c-1.09,0-1.97,0.37-2.64,1.12
		c-0.67,0.75-1,1.8-1,3.17c0,1.38,0.33,2.45,1,3.2c0.67,0.75,1.55,1.13,2.64,1.13c0.84,0,1.53-0.2,2.09-0.59
		c0.56-0.39,0.94-0.95,1.15-1.67h2.05c-0.31,1.17-0.92,2.11-1.84,2.81c-0.92,0.7-2.07,1.06-3.45,1.06c-1.09,0-2.05-0.24-2.9-0.73
		c-0.84-0.49-1.5-1.18-1.98-2.07c-0.47-0.89-0.71-1.94-0.71-3.14C188,226.06,188.24,225.03,188.71,224.14z"/>
	<path class="st4" d="M203.49,232.46c-0.87-0.49-1.56-1.18-2.05-2.08c-0.5-0.9-0.74-1.94-0.74-3.13c0-1.17,0.25-2.21,0.76-3.11
		c0.51-0.9,1.2-1.59,2.08-2.07c0.88-0.48,1.86-0.72,2.95-0.72s2.07,0.24,2.95,0.72c0.88,0.48,1.57,1.17,2.08,2.06
		c0.51,0.89,0.76,1.93,0.76,3.12c0,1.19-0.26,2.23-0.78,3.13c-0.52,0.9-1.23,1.59-2.12,2.08c-0.89,0.49-1.88,0.73-2.97,0.73
		C205.34,233.19,204.36,232.95,203.49,232.46z M208.33,231.03c0.6-0.32,1.08-0.8,1.45-1.44c0.37-0.64,0.55-1.42,0.55-2.34
		s-0.18-1.7-0.54-2.34c-0.36-0.64-0.84-1.12-1.42-1.43c-0.59-0.31-1.22-0.47-1.9-0.47c-0.7,0-1.34,0.16-1.91,0.47
		c-0.58,0.31-1.04,0.79-1.39,1.43c-0.35,0.64-0.52,1.42-0.52,2.34c0,0.93,0.17,1.72,0.51,2.36c0.34,0.64,0.8,1.12,1.37,1.43
		c0.57,0.31,1.2,0.47,1.88,0.47S207.73,231.36,208.33,231.03z"/>
	<path class="st4" d="M223.77,222.59c0.86,0.84,1.3,2.06,1.3,3.65V233h-1.88v-6.48c0-1.14-0.29-2.02-0.86-2.63
		c-0.57-0.61-1.35-0.91-2.34-0.91c-1,0-1.8,0.31-2.4,0.94c-0.59,0.63-0.89,1.54-0.89,2.74V233h-1.9v-11.46h1.9v1.63
		c0.38-0.59,0.89-1.04,1.54-1.36s1.36-0.48,2.14-0.48C221.78,221.33,222.91,221.75,223.77,222.59z"/>
	<path class="st4" d="M229.88,232.74c-0.7-0.3-1.25-0.72-1.65-1.25c-0.4-0.54-0.63-1.15-0.67-1.85h1.97
		c0.06,0.57,0.32,1.04,0.81,1.4c0.48,0.36,1.11,0.54,1.89,0.54c0.72,0,1.3-0.16,1.72-0.48s0.63-0.73,0.63-1.21
		c0-0.5-0.22-0.88-0.67-1.12c-0.45-0.24-1.14-0.48-2.07-0.72c-0.85-0.22-1.54-0.45-2.08-0.68c-0.54-0.23-1-0.57-1.38-1.03
		c-0.38-0.45-0.58-1.05-0.58-1.79c0-0.59,0.17-1.12,0.52-1.61c0.35-0.49,0.84-0.88,1.48-1.16c0.64-0.29,1.37-0.43,2.2-0.43
		c1.27,0,2.29,0.32,3.07,0.96c0.78,0.64,1.2,1.52,1.25,2.64h-1.9c-0.04-0.6-0.28-1.08-0.72-1.44s-1.03-0.54-1.77-0.54
		c-0.68,0-1.23,0.15-1.63,0.44c-0.4,0.29-0.61,0.68-0.61,1.15c0,0.38,0.12,0.69,0.37,0.93c0.24,0.24,0.55,0.44,0.92,0.59
		c0.37,0.15,0.88,0.31,1.54,0.49c0.82,0.22,1.49,0.44,2.01,0.66s0.96,0.54,1.33,0.97c0.37,0.43,0.56,1,0.58,1.69
		c0,0.63-0.17,1.19-0.52,1.69c-0.35,0.5-0.84,0.9-1.48,1.18c-0.63,0.29-1.36,0.43-2.19,0.43
		C231.37,233.19,230.58,233.04,229.88,232.74z"/>
	<path class="st4" d="M241.43,223.11v6.76c0,0.56,0.12,0.95,0.36,1.18c0.24,0.23,0.65,0.35,1.23,0.35h1.4V233h-1.72
		c-1.06,0-1.85-0.24-2.38-0.73s-0.79-1.29-0.79-2.41v-6.76h-1.48v-1.57h1.48v-2.89h1.9v2.89h2.99v1.57H241.43z"/>
	<path class="st4" d="M257.24,213.46v1.57h-1.99v20.27h1.99v1.59h-3.77v-23.43H257.24z"/>
	<path class="st4" d="M261.21,219.3c-0.25-0.25-0.38-0.56-0.38-0.92s0.13-0.67,0.38-0.92s0.56-0.38,0.92-0.38
		c0.35,0,0.65,0.13,0.89,0.38c0.24,0.25,0.37,0.56,0.37,0.92s-0.12,0.67-0.37,0.92c-0.24,0.25-0.54,0.38-0.89,0.38
		C261.77,219.68,261.47,219.55,261.21,219.3z M263.06,221.54V233h-1.9v-11.46H263.06z"/>
	<path class="st4" d="M267.99,232.74c-0.7-0.3-1.25-0.72-1.65-1.25c-0.4-0.54-0.63-1.15-0.67-1.85h1.97
		c0.06,0.57,0.32,1.04,0.81,1.4c0.48,0.36,1.11,0.54,1.89,0.54c0.72,0,1.3-0.16,1.72-0.48s0.63-0.73,0.63-1.21
		c0-0.5-0.22-0.88-0.67-1.12c-0.45-0.24-1.14-0.48-2.07-0.72c-0.85-0.22-1.54-0.45-2.08-0.68c-0.54-0.23-1-0.57-1.38-1.03
		c-0.38-0.45-0.58-1.05-0.58-1.79c0-0.59,0.17-1.12,0.52-1.61c0.35-0.49,0.84-0.88,1.48-1.16c0.64-0.29,1.37-0.43,2.2-0.43
		c1.27,0,2.29,0.32,3.07,0.96c0.78,0.64,1.2,1.52,1.25,2.64h-1.9c-0.04-0.6-0.28-1.08-0.72-1.44s-1.03-0.54-1.77-0.54
		c-0.68,0-1.23,0.15-1.63,0.44c-0.4,0.29-0.61,0.68-0.61,1.15c0,0.38,0.12,0.69,0.37,0.93c0.24,0.24,0.55,0.44,0.92,0.59
		c0.37,0.15,0.88,0.31,1.54,0.49c0.82,0.22,1.49,0.44,2.01,0.66s0.96,0.54,1.33,0.97c0.37,0.43,0.56,1,0.58,1.69
		c0,0.63-0.17,1.19-0.52,1.69c-0.35,0.5-0.84,0.9-1.48,1.18c-0.63,0.29-1.36,0.43-2.19,0.43
		C269.48,233.19,268.69,233.04,267.99,232.74z"/>
	<path class="st4" d="M279.12,231.45h5.1V233h-7.01v-14.58h1.9V231.45z"/>
	<path class="st4" d="M288.33,232.46c-0.87-0.49-1.56-1.18-2.05-2.08c-0.5-0.9-0.74-1.94-0.74-3.13c0-1.17,0.25-2.21,0.76-3.11
		c0.51-0.9,1.2-1.59,2.08-2.07c0.88-0.48,1.86-0.72,2.95-0.72s2.07,0.24,2.95,0.72c0.88,0.48,1.57,1.17,2.08,2.06
		c0.51,0.89,0.76,1.93,0.76,3.12c0,1.19-0.26,2.23-0.78,3.13c-0.52,0.9-1.23,1.59-2.12,2.08c-0.89,0.49-1.88,0.73-2.97,0.73
		C290.18,233.19,289.21,232.95,288.33,232.46z M293.18,231.03c0.6-0.32,1.08-0.8,1.45-1.44c0.37-0.64,0.55-1.42,0.55-2.34
		s-0.18-1.7-0.54-2.34c-0.36-0.64-0.84-1.12-1.42-1.43c-0.59-0.31-1.22-0.47-1.9-0.47c-0.7,0-1.34,0.16-1.91,0.47
		c-0.58,0.31-1.04,0.79-1.39,1.43c-0.35,0.64-0.52,1.42-0.52,2.34c0,0.93,0.17,1.72,0.51,2.36c0.34,0.64,0.8,1.12,1.37,1.43
		c0.57,0.31,1.2,0.47,1.88,0.47S292.58,231.36,293.18,231.03z"/>
	<path class="st4" d="M299.64,224.14c0.47-0.89,1.13-1.57,1.96-2.06c0.83-0.49,1.75-0.73,2.77-0.73c1,0,1.88,0.22,2.61,0.65
		c0.74,0.43,1.29,0.98,1.65,1.63v-2.09h1.92V233h-1.92v-2.13c-0.38,0.67-0.94,1.22-1.68,1.66s-1.61,0.66-2.6,0.66
		c-1.02,0-1.94-0.25-2.76-0.75c-0.82-0.5-1.47-1.21-1.95-2.11c-0.47-0.91-0.71-1.94-0.71-3.1
		C298.93,226.06,299.17,225.03,299.64,224.14z M308.11,224.99c-0.35-0.64-0.82-1.13-1.41-1.47c-0.59-0.34-1.24-0.51-1.96-0.51
		c-0.71,0-1.36,0.17-1.95,0.5c-0.59,0.33-1.05,0.82-1.4,1.46c-0.35,0.64-0.52,1.4-0.52,2.26c0,0.88,0.17,1.64,0.52,2.29
		s0.82,1.14,1.4,1.49c0.59,0.34,1.23,0.51,1.95,0.51c0.71,0,1.36-0.17,1.96-0.51s1.06-0.84,1.41-1.49c0.35-0.65,0.52-1.4,0.52-2.27
		S308.46,225.63,308.11,224.99z"/>
	<path class="st4" d="M313.78,224.14c0.47-0.89,1.13-1.57,1.96-2.06c0.83-0.49,1.76-0.73,2.79-0.73c0.89,0,1.72,0.21,2.49,0.62
		c0.77,0.41,1.35,0.95,1.76,1.62v-6.07h1.92V233h-1.92v-2.15c-0.38,0.68-0.93,1.24-1.67,1.68c-0.74,0.44-1.6,0.66-2.59,0.66
		c-1.02,0-1.94-0.25-2.77-0.75s-1.48-1.21-1.96-2.11c-0.47-0.91-0.71-1.94-0.71-3.1C313.07,226.06,313.31,225.03,313.78,224.14z
		 M322.25,224.99c-0.35-0.64-0.82-1.13-1.41-1.47c-0.59-0.34-1.24-0.51-1.96-0.51c-0.71,0-1.36,0.17-1.95,0.5
		c-0.59,0.33-1.05,0.82-1.4,1.46c-0.35,0.64-0.52,1.4-0.52,2.26c0,0.88,0.17,1.64,0.52,2.29s0.82,1.14,1.4,1.49
		c0.59,0.34,1.23,0.51,1.95,0.51c0.71,0,1.36-0.17,1.96-0.51s1.06-0.84,1.41-1.49c0.35-0.65,0.52-1.4,0.52-2.27
		S322.6,225.63,322.25,224.99z"/>
	<path class="st4" d="M327.98,219.3c-0.25-0.25-0.38-0.56-0.38-0.92s0.13-0.67,0.38-0.92s0.56-0.38,0.92-0.38
		c0.35,0,0.65,0.13,0.89,0.38c0.24,0.25,0.37,0.56,0.37,0.92s-0.12,0.67-0.37,0.92c-0.24,0.25-0.54,0.38-0.89,0.38
		C328.54,219.68,328.23,219.55,327.98,219.3z M329.82,221.54V233h-1.9v-11.46H329.82z"/>
	<path class="st4" d="M342.04,222.59c0.86,0.84,1.3,2.06,1.3,3.65V233h-1.88v-6.48c0-1.14-0.29-2.02-0.86-2.63
		c-0.57-0.61-1.35-0.91-2.34-0.91c-1,0-1.8,0.31-2.4,0.94c-0.59,0.63-0.89,1.54-0.89,2.74V233h-1.9v-11.46h1.9v1.63
		c0.38-0.59,0.89-1.04,1.54-1.36s1.36-0.48,2.14-0.48C340.05,221.33,341.18,221.75,342.04,222.59z"/>
	<path class="st4" d="M353.79,222c0.75,0.43,1.3,0.98,1.66,1.63v-2.09h1.92v11.71c0,1.05-0.22,1.98-0.67,2.79s-1.08,1.45-1.91,1.91
		c-0.83,0.46-1.8,0.69-2.9,0.69c-1.51,0-2.76-0.36-3.77-1.07s-1.6-1.68-1.78-2.91h1.88c0.21,0.7,0.64,1.26,1.3,1.68
		c0.66,0.43,1.44,0.64,2.36,0.64c1.05,0,1.9-0.33,2.56-0.98c0.66-0.66,0.99-1.58,0.99-2.76v-2.41c-0.38,0.67-0.93,1.23-1.67,1.67
		c-0.74,0.45-1.6,0.67-2.59,0.67c-1.02,0-1.94-0.25-2.77-0.75s-1.48-1.21-1.96-2.11c-0.47-0.91-0.71-1.94-0.71-3.1
		c0-1.17,0.24-2.2,0.71-3.09c0.47-0.89,1.13-1.57,1.96-2.06c0.83-0.49,1.75-0.73,2.77-0.73C352.17,221.35,353.04,221.57,353.79,222z
		 M354.93,224.99c-0.35-0.64-0.82-1.13-1.41-1.47c-0.59-0.34-1.24-0.51-1.96-0.51c-0.71,0-1.36,0.17-1.95,0.5
		c-0.59,0.33-1.05,0.82-1.4,1.46c-0.35,0.64-0.52,1.4-0.52,2.26c0,0.88,0.17,1.64,0.52,2.29s0.82,1.14,1.4,1.49
		c0.59,0.34,1.23,0.51,1.95,0.51c0.71,0,1.36-0.17,1.96-0.51s1.06-0.84,1.41-1.49c0.35-0.65,0.52-1.4,0.52-2.27
		S355.27,225.63,354.93,224.99z"/>
	<path class="st4" d="M362.56,230.37l-2.34,5.63h-1.28l1.53-5.63H362.56z"/>
	<path class="st4" d="M372.02,232.74c-0.7-0.3-1.25-0.72-1.65-1.25c-0.4-0.54-0.63-1.15-0.67-1.85h1.97
		c0.06,0.57,0.32,1.04,0.81,1.4c0.48,0.36,1.11,0.54,1.89,0.54c0.72,0,1.3-0.16,1.72-0.48s0.63-0.73,0.63-1.21
		c0-0.5-0.22-0.88-0.67-1.12c-0.45-0.24-1.14-0.48-2.07-0.72c-0.85-0.22-1.54-0.45-2.08-0.68c-0.54-0.23-1-0.57-1.38-1.03
		c-0.38-0.45-0.58-1.05-0.58-1.79c0-0.59,0.17-1.12,0.52-1.61c0.35-0.49,0.84-0.88,1.48-1.16c0.64-0.29,1.37-0.43,2.2-0.43
		c1.27,0,2.29,0.32,3.07,0.96c0.78,0.64,1.2,1.52,1.25,2.64h-1.9c-0.04-0.6-0.28-1.08-0.72-1.44s-1.03-0.54-1.77-0.54
		c-0.68,0-1.23,0.15-1.63,0.44c-0.4,0.29-0.61,0.68-0.61,1.15c0,0.38,0.12,0.69,0.37,0.93c0.24,0.24,0.55,0.44,0.92,0.59
		c0.37,0.15,0.88,0.31,1.54,0.49c0.82,0.22,1.49,0.44,2.01,0.66s0.96,0.54,1.33,0.97c0.37,0.43,0.56,1,0.58,1.69
		c0,0.63-0.17,1.19-0.52,1.69c-0.35,0.5-0.84,0.9-1.48,1.18c-0.63,0.29-1.36,0.43-2.19,0.43
		C373.5,233.19,372.71,233.04,372.02,232.74z"/>
	<path class="st4" d="M391.64,227.98h-9.16c0.07,1.13,0.46,2.01,1.16,2.65c0.7,0.63,1.56,0.95,2.56,0.95c0.82,0,1.51-0.19,2.06-0.58
		c0.55-0.38,0.94-0.9,1.16-1.54h2.05c-0.31,1.1-0.92,2-1.84,2.69s-2.06,1.04-3.43,1.04c-1.09,0-2.06-0.24-2.92-0.73
		c-0.86-0.49-1.53-1.18-2.02-2.08c-0.49-0.9-0.73-1.94-0.73-3.13c0-1.19,0.24-2.22,0.71-3.12c0.47-0.89,1.14-1.58,2-2.06
		c0.86-0.48,1.84-0.72,2.96-0.72c1.09,0,2.05,0.24,2.89,0.71c0.84,0.47,1.48,1.13,1.93,1.96c0.45,0.83,0.68,1.77,0.68,2.81
		C391.7,227.19,391.68,227.58,391.64,227.98z M389.25,224.56c-0.32-0.52-0.76-0.92-1.31-1.19c-0.55-0.27-1.16-0.41-1.83-0.41
		c-0.96,0-1.78,0.31-2.46,0.92c-0.68,0.61-1.06,1.46-1.16,2.55h7.24C389.73,225.71,389.57,225.08,389.25,224.56z"/>
	<path class="st4" d="M396.53,223.11v6.76c0,0.56,0.12,0.95,0.36,1.18c0.24,0.23,0.65,0.35,1.23,0.35h1.4V233h-1.72
		c-1.06,0-1.85-0.24-2.38-0.73s-0.79-1.29-0.79-2.41v-6.76h-1.48v-1.57h1.48v-2.89h1.9v2.89h2.99v1.57H396.53z"/>
	<path class="st4" d="M403.73,231.45h5.1V233h-7.01v-14.58h1.9V231.45z"/>
	<path class="st4" d="M412.94,232.46c-0.87-0.49-1.56-1.18-2.05-2.08c-0.5-0.9-0.74-1.94-0.74-3.13c0-1.17,0.25-2.21,0.76-3.11
		c0.51-0.9,1.2-1.59,2.08-2.07c0.88-0.48,1.86-0.72,2.95-0.72s2.07,0.24,2.95,0.72c0.88,0.48,1.57,1.17,2.08,2.06
		c0.51,0.89,0.76,1.93,0.76,3.12c0,1.19-0.26,2.23-0.78,3.13c-0.52,0.9-1.23,1.59-2.12,2.08c-0.89,0.49-1.88,0.73-2.97,0.73
		C414.79,233.19,413.81,232.95,412.94,232.46z M417.78,231.03c0.6-0.32,1.08-0.8,1.45-1.44c0.37-0.64,0.55-1.42,0.55-2.34
		s-0.18-1.7-0.54-2.34c-0.36-0.64-0.84-1.12-1.42-1.43c-0.59-0.31-1.22-0.47-1.9-0.47c-0.7,0-1.34,0.16-1.91,0.47
		c-0.58,0.31-1.04,0.79-1.39,1.43c-0.35,0.64-0.52,1.42-0.52,2.34c0,0.93,0.17,1.72,0.51,2.36c0.34,0.64,0.8,1.12,1.37,1.43
		c0.57,0.31,1.2,0.47,1.88,0.47S417.18,231.36,417.78,231.03z"/>
	<path class="st4" d="M424.25,224.14c0.47-0.89,1.13-1.57,1.96-2.06c0.83-0.49,1.75-0.73,2.77-0.73c1,0,1.88,0.22,2.61,0.65
		c0.74,0.43,1.29,0.98,1.65,1.63v-2.09h1.92V233h-1.92v-2.13c-0.38,0.67-0.94,1.22-1.68,1.66s-1.61,0.66-2.6,0.66
		c-1.02,0-1.94-0.25-2.76-0.75c-0.82-0.5-1.47-1.21-1.95-2.11c-0.47-0.91-0.71-1.94-0.71-3.1
		C423.54,226.06,423.77,225.03,424.25,224.14z M432.72,224.99c-0.35-0.64-0.82-1.13-1.41-1.47c-0.59-0.34-1.24-0.51-1.96-0.51
		c-0.71,0-1.36,0.17-1.95,0.5c-0.59,0.33-1.05,0.82-1.4,1.46c-0.35,0.64-0.52,1.4-0.52,2.26c0,0.88,0.17,1.64,0.52,2.29
		s0.82,1.14,1.4,1.49c0.59,0.34,1.23,0.51,1.95,0.51c0.71,0,1.36-0.17,1.96-0.51s1.06-0.84,1.41-1.49c0.35-0.65,0.52-1.4,0.52-2.27
		S433.07,225.63,432.72,224.99z"/>
	<path class="st4" d="M438.39,224.14c0.47-0.89,1.13-1.57,1.96-2.06c0.83-0.49,1.76-0.73,2.79-0.73c0.89,0,1.72,0.21,2.49,0.62
		c0.77,0.41,1.35,0.95,1.76,1.62v-6.07h1.92V233h-1.92v-2.15c-0.38,0.68-0.93,1.24-1.67,1.68c-0.74,0.44-1.6,0.66-2.59,0.66
		c-1.02,0-1.94-0.25-2.77-0.75s-1.48-1.21-1.96-2.11c-0.47-0.91-0.71-1.94-0.71-3.1C437.68,226.06,437.91,225.03,438.39,224.14z
		 M446.86,224.99c-0.35-0.64-0.82-1.13-1.41-1.47c-0.59-0.34-1.24-0.51-1.96-0.51c-0.71,0-1.36,0.17-1.95,0.5
		c-0.59,0.33-1.05,0.82-1.4,1.46c-0.35,0.64-0.52,1.4-0.52,2.26c0,0.88,0.17,1.64,0.52,2.29s0.82,1.14,1.4,1.49
		c0.59,0.34,1.23,0.51,1.95,0.51c0.71,0,1.36-0.17,1.96-0.51s1.06-0.84,1.41-1.49c0.35-0.65,0.52-1.4,0.52-2.27
		S447.21,225.63,446.86,224.99z"/>
	<path class="st4" d="M452.59,219.3c-0.25-0.25-0.38-0.56-0.38-0.92s0.13-0.67,0.38-0.92s0.56-0.38,0.92-0.38
		c0.35,0,0.65,0.13,0.89,0.38c0.24,0.25,0.37,0.56,0.37,0.92s-0.12,0.67-0.37,0.92c-0.24,0.25-0.54,0.38-0.89,0.38
		C453.15,219.68,452.84,219.55,452.59,219.3z M454.43,221.54V233h-1.9v-11.46H454.43z"/>
	<path class="st4" d="M466.65,222.59c0.86,0.84,1.3,2.06,1.3,3.65V233h-1.88v-6.48c0-1.14-0.29-2.02-0.86-2.63
		c-0.57-0.61-1.35-0.91-2.34-0.91c-1,0-1.8,0.31-2.4,0.94c-0.59,0.63-0.89,1.54-0.89,2.74V233h-1.9v-11.46h1.9v1.63
		c0.38-0.59,0.89-1.04,1.54-1.36s1.36-0.48,2.14-0.48C464.65,221.33,465.78,221.75,466.65,222.59z"/>
	<path class="st4" d="M478.39,222c0.75,0.43,1.3,0.98,1.66,1.63v-2.09h1.92v11.71c0,1.05-0.22,1.98-0.67,2.79s-1.08,1.45-1.91,1.91
		c-0.83,0.46-1.8,0.69-2.9,0.69c-1.51,0-2.76-0.36-3.77-1.07s-1.6-1.68-1.78-2.91h1.88c0.21,0.7,0.64,1.26,1.3,1.68
		c0.66,0.43,1.44,0.64,2.36,0.64c1.05,0,1.9-0.33,2.56-0.98c0.66-0.66,0.99-1.58,0.99-2.76v-2.41c-0.38,0.67-0.93,1.23-1.67,1.67
		c-0.74,0.45-1.6,0.67-2.59,0.67c-1.02,0-1.94-0.25-2.77-0.75s-1.48-1.21-1.96-2.11c-0.47-0.91-0.71-1.94-0.71-3.1
		c0-1.17,0.24-2.2,0.71-3.09c0.47-0.89,1.13-1.57,1.96-2.06c0.83-0.49,1.75-0.73,2.77-0.73C476.78,221.35,477.65,221.57,478.39,222z
		 M479.53,224.99c-0.35-0.64-0.82-1.13-1.41-1.47c-0.59-0.34-1.24-0.51-1.96-0.51c-0.71,0-1.36,0.17-1.95,0.5
		c-0.59,0.33-1.05,0.82-1.4,1.46c-0.35,0.64-0.52,1.4-0.52,2.26c0,0.88,0.17,1.64,0.52,2.29s0.82,1.14,1.4,1.49
		c0.59,0.34,1.23,0.51,1.95,0.51c0.71,0,1.36-0.17,1.96-0.51s1.06-0.84,1.41-1.49c0.35-0.65,0.52-1.4,0.52-2.27
		S479.88,225.63,479.53,224.99z"/>
	<path class="st4" d="M489.66,236.89h-3.77v-1.59h1.99v-20.27h-1.99v-1.57h3.77V236.89z"/>
	<path class="st4" d="M511.01,222.29v1.61h-10.88v-1.61H511.01z M511.01,226.79v1.61h-10.88v-1.61H511.01z"/>
	<path class="st4" d="M528.02,233l-3.47-5.96h-2.3V233h-1.9v-14.58h4.71c1.1,0,2.03,0.19,2.79,0.56c0.76,0.38,1.33,0.89,1.7,1.53
		c0.38,0.64,0.56,1.37,0.56,2.2c0,1-0.29,1.89-0.87,2.66c-0.58,0.77-1.45,1.28-2.6,1.53l3.66,6.11H528.02z M522.25,225.51h2.8
		c1.03,0,1.81-0.25,2.32-0.76c0.52-0.51,0.77-1.19,0.77-2.04c0-0.86-0.25-1.53-0.76-2.01s-1.29-0.71-2.33-0.71h-2.8V225.51z"/>
	<path class="st4" d="M543.46,227.98h-9.16c0.07,1.13,0.46,2.01,1.16,2.65c0.7,0.63,1.56,0.95,2.56,0.95c0.82,0,1.51-0.19,2.06-0.58
		c0.55-0.38,0.94-0.9,1.16-1.54h2.05c-0.31,1.1-0.92,2-1.84,2.69s-2.06,1.04-3.43,1.04c-1.09,0-2.06-0.24-2.92-0.73
		c-0.86-0.49-1.53-1.18-2.02-2.08c-0.49-0.9-0.73-1.94-0.73-3.13c0-1.19,0.24-2.22,0.71-3.12c0.47-0.89,1.14-1.58,2-2.06
		c0.86-0.48,1.84-0.72,2.96-0.72c1.09,0,2.05,0.24,2.89,0.71c0.84,0.47,1.48,1.13,1.93,1.96c0.45,0.83,0.68,1.77,0.68,2.81
		C543.52,227.19,543.5,227.58,543.46,227.98z M541.07,224.56c-0.32-0.52-0.76-0.92-1.31-1.19c-0.55-0.27-1.16-0.41-1.83-0.41
		c-0.96,0-1.78,0.31-2.46,0.92c-0.68,0.61-1.06,1.46-1.16,2.55h7.24C541.55,225.71,541.39,225.08,541.07,224.56z"/>
	<path class="st4" d="M546.03,224.14c0.47-0.89,1.13-1.57,1.96-2.06c0.83-0.49,1.75-0.73,2.77-0.73c1,0,1.88,0.22,2.61,0.65
		c0.74,0.43,1.29,0.98,1.65,1.63v-2.09h1.92V233h-1.92v-2.13c-0.38,0.67-0.94,1.22-1.68,1.66s-1.61,0.66-2.6,0.66
		c-1.02,0-1.94-0.25-2.76-0.75c-0.82-0.5-1.47-1.21-1.95-2.11c-0.47-0.91-0.71-1.94-0.71-3.1
		C545.32,226.06,545.56,225.03,546.03,224.14z M554.5,224.99c-0.35-0.64-0.82-1.13-1.41-1.47c-0.59-0.34-1.24-0.51-1.96-0.51
		c-0.71,0-1.36,0.17-1.95,0.5c-0.59,0.33-1.05,0.82-1.4,1.46c-0.35,0.64-0.52,1.4-0.52,2.26c0,0.88,0.17,1.64,0.52,2.29
		s0.82,1.14,1.4,1.49c0.59,0.34,1.23,0.51,1.95,0.51c0.71,0,1.36-0.17,1.96-0.51s1.06-0.84,1.41-1.49c0.35-0.65,0.52-1.4,0.52-2.27
		S554.85,225.63,554.5,224.99z"/>
	<path class="st4" d="M560.17,224.14c0.47-0.89,1.13-1.57,1.98-2.06c0.84-0.49,1.81-0.73,2.9-0.73c1.41,0,2.57,0.34,3.48,1.02
		c0.91,0.68,1.52,1.63,1.81,2.84h-2.05c-0.2-0.7-0.58-1.25-1.14-1.65c-0.56-0.4-1.27-0.61-2.1-0.61c-1.09,0-1.97,0.37-2.64,1.12
		c-0.67,0.75-1,1.8-1,3.17c0,1.38,0.33,2.45,1,3.2c0.67,0.75,1.55,1.13,2.64,1.13c0.84,0,1.53-0.2,2.09-0.59
		c0.56-0.39,0.94-0.95,1.15-1.67h2.05c-0.31,1.17-0.92,2.11-1.84,2.81c-0.92,0.7-2.07,1.06-3.45,1.06c-1.09,0-2.05-0.24-2.9-0.73
		c-0.84-0.49-1.5-1.18-1.98-2.07c-0.47-0.89-0.71-1.94-0.71-3.14C559.46,226.06,559.7,225.03,560.17,224.14z"/>
	<path class="st4" d="M575.19,223.11v6.76c0,0.56,0.12,0.95,0.36,1.18c0.24,0.23,0.65,0.35,1.23,0.35h1.4V233h-1.72
		c-1.06,0-1.85-0.24-2.38-0.73s-0.79-1.29-0.79-2.41v-6.76h-1.48v-1.57h1.48v-2.89h1.9v2.89h2.99v1.57H575.19z"/>
	<path class="st4" d="M580.17,232.75c-0.25-0.25-0.38-0.56-0.38-0.92c0-0.36,0.13-0.67,0.38-0.92s0.56-0.38,0.92-0.38
		c0.35,0,0.65,0.13,0.89,0.38c0.24,0.25,0.37,0.56,0.37,0.92c0,0.36-0.12,0.67-0.37,0.92c-0.24,0.25-0.54,0.38-0.89,0.38
		C580.73,233.13,580.42,233,580.17,232.75z"/>
	<path class="st4" d="M595.04,221.54V233h-1.9v-1.69c-0.36,0.59-0.87,1.04-1.52,1.37s-1.36,0.49-2.14,0.49
		c-0.89,0-1.69-0.18-2.41-0.55c-0.71-0.37-1.27-0.92-1.68-1.66s-0.62-1.64-0.62-2.7v-6.71h1.88V228c0,1.13,0.29,2,0.86,2.6
		c0.57,0.61,1.35,0.91,2.34,0.91c1.02,0,1.82-0.31,2.41-0.94c0.59-0.63,0.88-1.54,0.88-2.74v-6.3H595.04z"/>
	<path class="st4" d="M599.96,232.74c-0.7-0.3-1.25-0.72-1.65-1.25c-0.4-0.54-0.63-1.15-0.67-1.85h1.97
		c0.06,0.57,0.32,1.04,0.81,1.4c0.48,0.36,1.11,0.54,1.89,0.54c0.72,0,1.3-0.16,1.72-0.48s0.63-0.73,0.63-1.21
		c0-0.5-0.22-0.88-0.67-1.12c-0.45-0.24-1.14-0.48-2.07-0.72c-0.85-0.22-1.54-0.45-2.08-0.68c-0.54-0.23-1-0.57-1.38-1.03
		c-0.38-0.45-0.58-1.05-0.58-1.79c0-0.59,0.17-1.12,0.52-1.61c0.35-0.49,0.84-0.88,1.48-1.16c0.64-0.29,1.37-0.43,2.2-0.43
		c1.27,0,2.29,0.32,3.07,0.96c0.78,0.64,1.2,1.52,1.25,2.64h-1.9c-0.04-0.6-0.28-1.08-0.72-1.44s-1.03-0.54-1.77-0.54
		c-0.68,0-1.23,0.15-1.63,0.44c-0.4,0.29-0.61,0.68-0.61,1.15c0,0.38,0.12,0.69,0.37,0.93c0.24,0.24,0.55,0.44,0.92,0.59
		c0.37,0.15,0.88,0.31,1.54,0.49c0.82,0.22,1.49,0.44,2.01,0.66s0.96,0.54,1.33,0.97c0.37,0.43,0.56,1,0.58,1.69
		c0,0.63-0.17,1.19-0.52,1.69c-0.35,0.5-0.84,0.9-1.48,1.18c-0.63,0.29-1.36,0.43-2.19,0.43
		C601.44,233.19,600.65,233.04,599.96,232.74z"/>
	<path class="st4" d="M619.58,227.98h-9.16c0.07,1.13,0.46,2.01,1.16,2.65c0.7,0.63,1.56,0.95,2.56,0.95c0.82,0,1.51-0.19,2.06-0.58
		c0.55-0.38,0.94-0.9,1.16-1.54h2.05c-0.31,1.1-0.92,2-1.84,2.69s-2.06,1.04-3.43,1.04c-1.09,0-2.06-0.24-2.92-0.73
		c-0.86-0.49-1.53-1.18-2.02-2.08c-0.49-0.9-0.73-1.94-0.73-3.13c0-1.19,0.24-2.22,0.71-3.12c0.47-0.89,1.14-1.58,2-2.06
		c0.86-0.48,1.84-0.72,2.96-0.72c1.09,0,2.05,0.24,2.89,0.71c0.84,0.47,1.48,1.13,1.93,1.96c0.45,0.83,0.68,1.77,0.68,2.81
		C619.64,227.19,619.62,227.58,619.58,227.98z M617.19,224.56c-0.32-0.52-0.76-0.92-1.31-1.19c-0.55-0.27-1.16-0.41-1.83-0.41
		c-0.96,0-1.78,0.31-2.46,0.92c-0.68,0.61-1.06,1.46-1.16,2.55h7.24C617.67,225.71,617.51,225.08,617.19,224.56z"/>
	<path class="st4" d="M624.19,232.63c-0.76-0.34-1.36-0.82-1.79-1.42c-0.43-0.61-0.66-1.31-0.67-2.1h2.03
		c0.07,0.68,0.35,1.26,0.85,1.73c0.5,0.47,1.22,0.7,2.17,0.7c0.91,0,1.62-0.23,2.14-0.68s0.78-1.04,0.78-1.75
		c0-0.56-0.15-1.01-0.46-1.36c-0.31-0.35-0.69-0.61-1.15-0.79c-0.46-0.18-1.08-0.38-1.86-0.59c-0.96-0.25-1.73-0.5-2.31-0.75
		c-0.58-0.25-1.07-0.64-1.49-1.18c-0.41-0.54-0.62-1.26-0.62-2.17c0-0.79,0.2-1.5,0.61-2.11c0.4-0.61,0.97-1.09,1.7-1.42
		c0.73-0.33,1.57-0.5,2.52-0.5c1.37,0,2.49,0.34,3.36,1.02c0.87,0.68,1.36,1.59,1.47,2.72h-2.09c-0.07-0.56-0.36-1.05-0.88-1.47
		c-0.52-0.43-1.2-0.64-2.05-0.64c-0.79,0-1.44,0.21-1.95,0.62c-0.5,0.41-0.75,0.99-0.75,1.73c0,0.53,0.15,0.96,0.45,1.3
		c0.3,0.33,0.67,0.59,1.11,0.76c0.44,0.17,1.06,0.37,1.85,0.6c0.96,0.27,1.74,0.53,2.32,0.78c0.59,0.26,1.09,0.66,1.51,1.19
		c0.42,0.54,0.63,1.27,0.63,2.19c0,0.71-0.19,1.38-0.56,2.01c-0.38,0.63-0.93,1.14-1.67,1.53c-0.74,0.39-1.61,0.59-2.61,0.59
		C625.81,233.15,624.95,232.98,624.19,232.63z"/>
	<path class="st4" d="M636.75,223.11v6.76c0,0.56,0.12,0.95,0.36,1.18c0.24,0.23,0.65,0.35,1.23,0.35h1.4V233h-1.72
		c-1.06,0-1.85-0.24-2.38-0.73s-0.79-1.29-0.79-2.41v-6.76h-1.48v-1.57h1.48v-2.89h1.9v2.89h2.99v1.57H636.75z"/>
	<path class="st4" d="M642.04,224.14c0.47-0.89,1.13-1.57,1.96-2.06c0.83-0.49,1.75-0.73,2.77-0.73c1,0,1.88,0.22,2.61,0.65
		c0.74,0.43,1.29,0.98,1.65,1.63v-2.09h1.92V233h-1.92v-2.13c-0.38,0.67-0.94,1.22-1.68,1.66s-1.61,0.66-2.6,0.66
		c-1.02,0-1.94-0.25-2.76-0.75c-0.82-0.5-1.47-1.21-1.95-2.11c-0.47-0.91-0.71-1.94-0.71-3.1
		C641.33,226.06,641.57,225.03,642.04,224.14z M650.52,224.99c-0.35-0.64-0.82-1.13-1.41-1.47c-0.59-0.34-1.24-0.51-1.96-0.51
		c-0.71,0-1.36,0.17-1.95,0.5c-0.59,0.33-1.05,0.82-1.4,1.46c-0.35,0.64-0.52,1.4-0.52,2.26c0,0.88,0.17,1.64,0.52,2.29
		s0.82,1.14,1.4,1.49c0.59,0.34,1.23,0.51,1.95,0.51c0.71,0,1.36-0.17,1.96-0.51s1.06-0.84,1.41-1.49c0.35-0.65,0.52-1.4,0.52-2.27
		S650.86,225.63,650.52,224.99z"/>
	<path class="st4" d="M658.51,223.11v6.76c0,0.56,0.12,0.95,0.36,1.18c0.24,0.23,0.65,0.35,1.23,0.35h1.4V233h-1.72
		c-1.06,0-1.85-0.24-2.38-0.73s-0.79-1.29-0.79-2.41v-6.76h-1.48v-1.57h1.48v-2.89h1.9v2.89h2.99v1.57H658.51z"/>
	<path class="st4" d="M674.19,227.98h-9.16c0.07,1.13,0.46,2.01,1.16,2.65c0.7,0.63,1.56,0.95,2.56,0.95c0.82,0,1.51-0.19,2.06-0.58
		c0.55-0.38,0.94-0.9,1.16-1.54h2.05c-0.31,1.1-0.92,2-1.84,2.69s-2.06,1.04-3.43,1.04c-1.09,0-2.06-0.24-2.92-0.73
		c-0.86-0.49-1.53-1.18-2.02-2.08c-0.49-0.9-0.73-1.94-0.73-3.13c0-1.19,0.24-2.22,0.71-3.12c0.47-0.89,1.14-1.58,2-2.06
		c0.86-0.48,1.84-0.72,2.96-0.72c1.09,0,2.05,0.24,2.89,0.71c0.84,0.47,1.48,1.13,1.93,1.96c0.45,0.83,0.68,1.77,0.68,2.81
		C674.26,227.19,674.24,227.58,674.19,227.98z M671.81,224.56c-0.32-0.52-0.76-0.92-1.31-1.19c-0.55-0.27-1.16-0.41-1.83-0.41
		c-0.96,0-1.78,0.31-2.46,0.92c-0.68,0.61-1.06,1.46-1.16,2.55h7.24C672.29,225.71,672.13,225.08,671.81,224.56z"/>
	<path class="st4" d="M678.53,231.89c-0.75-2.02-1.12-4.2-1.12-6.55c0-2.4,0.39-4.64,1.18-6.73c0.79-2.08,1.91-3.8,3.38-5.16h1.99
		v0.19c-1.56,1.46-2.74,3.23-3.52,5.28c-0.79,2.06-1.18,4.19-1.18,6.41c0,2.16,0.37,4.23,1.12,6.19c0.75,1.97,1.84,3.69,3.27,5.17
		v0.19h-1.99C680.32,235.58,679.28,233.91,678.53,231.89z"/>
	<path class="st4" d="M688.59,223.11v6.76c0,0.56,0.12,0.95,0.36,1.18c0.24,0.23,0.65,0.35,1.23,0.35h1.4V233h-1.72
		c-1.06,0-1.85-0.24-2.38-0.73s-0.79-1.29-0.79-2.41v-6.76h-1.48v-1.57h1.48v-2.89h1.9v2.89h2.99v1.57H688.59z"/>
	<path class="st4" d="M697.21,221.87c0.62-0.36,1.38-0.54,2.27-0.54v1.97h-0.5c-2.13,0-3.2,1.16-3.2,3.47V233h-1.9v-11.46h1.9v1.86
		C696.12,222.74,696.59,222.24,697.21,221.87z"/>
	<path class="st4" d="M711.85,221.54V233h-1.9v-1.69c-0.36,0.59-0.87,1.04-1.52,1.37s-1.36,0.49-2.14,0.49
		c-0.89,0-1.69-0.18-2.41-0.55c-0.71-0.37-1.27-0.92-1.68-1.66s-0.62-1.64-0.62-2.7v-6.71h1.88V228c0,1.13,0.29,2,0.86,2.6
		c0.57,0.61,1.35,0.91,2.34,0.91c1.02,0,1.82-0.31,2.41-0.94c0.59-0.63,0.88-1.54,0.88-2.74v-6.3H711.85z"/>
	<path class="st4" d="M725.46,227.98h-9.16c0.07,1.13,0.46,2.01,1.16,2.65c0.7,0.63,1.56,0.95,2.56,0.95c0.82,0,1.51-0.19,2.06-0.58
		c0.55-0.38,0.94-0.9,1.16-1.54h2.05c-0.31,1.1-0.92,2-1.84,2.69s-2.06,1.04-3.43,1.04c-1.09,0-2.06-0.24-2.92-0.73
		c-0.86-0.49-1.53-1.18-2.02-2.08c-0.49-0.9-0.73-1.94-0.73-3.13c0-1.19,0.24-2.22,0.71-3.12c0.47-0.89,1.14-1.58,2-2.06
		c0.86-0.48,1.84-0.72,2.96-0.72c1.09,0,2.05,0.24,2.89,0.71c0.84,0.47,1.48,1.13,1.93,1.96c0.45,0.83,0.68,1.77,0.68,2.81
		C725.53,227.19,725.51,227.58,725.46,227.98z M723.08,224.56c-0.32-0.52-0.76-0.92-1.31-1.19c-0.55-0.27-1.16-0.41-1.83-0.41
		c-0.96,0-1.78,0.31-2.46,0.92c-0.68,0.61-1.06,1.46-1.16,2.55h7.24C723.56,225.71,723.4,225.08,723.08,224.56z"/>
	<path class="st4" d="M727.43,236.89v-0.19c1.44-1.48,2.53-3.2,3.27-5.17c0.75-1.97,1.12-4.03,1.12-6.19c0-2.22-0.39-4.35-1.18-6.41
		c-0.79-2.06-1.96-3.82-3.52-5.28v-0.19h1.99c1.46,1.35,2.59,3.07,3.38,5.16c0.79,2.08,1.18,4.33,1.18,6.73
		c0,2.34-0.37,4.53-1.12,6.55c-0.75,2.02-1.79,3.69-3.13,5H727.43z"/>
	<path class="st4" d="M740.02,230.37l-2.34,5.63h-1.28l1.53-5.63H740.02z M737.72,223.78c-0.25-0.25-0.38-0.56-0.38-0.92
		s0.13-0.67,0.38-0.92s0.56-0.38,0.92-0.38c0.35,0,0.65,0.13,0.89,0.38c0.24,0.25,0.37,0.56,0.37,0.92s-0.12,0.67-0.37,0.92
		c-0.24,0.25-0.54,0.38-0.89,0.38C738.28,224.15,737.97,224.03,737.72,223.78z"/>
	<path class="st5" d="M158.93,253.23c0,0.53,0.07,1.44,0.21,2.72c0.14,1.37,0.21,2.36,0.21,2.97c0,1-0.28,1.77-0.85,2.3
		c-0.56,0.53-1.32,0.79-2.27,0.79h-1.21v-1.65h0.86c0.54,0,0.95-0.12,1.21-0.37c0.26-0.24,0.4-0.65,0.4-1.2c0-0.4-0.03-0.9-0.08-1.5
		c-0.06-0.59-0.09-0.99-0.1-1.2c-0.14-1.34-0.21-2.31-0.21-2.93c0-0.74,0.18-1.36,0.55-1.86c0.37-0.5,0.94-0.84,1.7-1v-0.04
		c-0.77-0.17-1.34-0.5-1.7-0.99c-0.37-0.49-0.55-1.11-0.55-1.85c0-0.61,0.07-1.59,0.21-2.93c0.01-0.21,0.05-0.61,0.1-1.2
		c0.06-0.59,0.08-1.09,0.08-1.5c0-0.56-0.13-0.96-0.4-1.2c-0.27-0.24-0.67-0.37-1.21-0.37h-0.86v-1.65h1.21
		c0.95,0,1.7,0.27,2.27,0.79c0.56,0.53,0.85,1.3,0.85,2.3c0,0.61-0.07,1.6-0.21,2.97c-0.14,1.28-0.21,2.19-0.21,2.72
		c0,1.2,0.71,1.93,2.13,2.2v1.49C159.64,251.3,158.93,252.03,158.93,253.23z"/>
</g>
<path class="st7" d="M1136.46,331.1v186.16c0,8.36,6.78,15.14,15.14,15.14h186.16c8.36,0,15.14-6.78,15.14-15.14V331.1
	c0-8.36-6.78-15.14-15.14-15.14h-186.16C1143.24,315.96,1136.46,322.74,1136.46,331.1z M1254.33,484.78
	c0,21.06-12.34,30.65-30.37,30.65c-16.28,0-25.71-8.43-30.51-18.58l16.57-10.03l0,0c3.2,5.67,6.1,10.46,13.09,10.46
	c6.68,0,10.89-2.61,10.89-12.78v-69.16h20.34V484.78z M1302.41,515.47c-18.89,0-31.1-9-37.06-20.8l16.51-9.62v0
	c4.36,7.12,10.03,12.35,20.06,12.35c8.43,0,13.81-4.21,13.81-10.03c0-6.98-5.53-9.44-14.8-13.5l-5.09-2.18
	c-14.67-6.26-24.43-14.08-24.43-30.65c0-15.25,11.62-26.87,29.79-26.87c12.93,0,22.23,4.5,28.93,16.28l-15.84,10.17
	c-3.48-6.26-7.25-8.72-13.09-8.72c-5.96,0-9.73,3.78-9.73,8.72c0,6.1,3.78,8.57,12.5,12.35l5.09,2.18
	c17.28,7.41,27.04,14.96,27.04,31.95C1336.11,505.44,1321.72,515.47,1302.41,515.47z"/>
<g class="st1">
	<path class="st8" d="M483.99,792.74c0.54-0.54,44.38,41.91,81.47,41.86c19.04-0.03,40.98-50.01,63.81-49.96
		c21.01,0.04,42.65,50.11,63.66,50.19c22.84,0.08,44.97-49.82,64.01-49.73c36.9,0.17,62.85,50.33,63.68,50.33"/>
</g>
<g class="st1">
	<g class="st3">
		<line class="st9" x1="179.37" y1="338.93" x2="179.37" y2="344.93"/>
		<path class="st10" d="M179.37,356.02v67.35c0,13.25,10.75,24,24,24h22.53"/>
		<line class="st9" x1="231.44" y1="447.37" x2="237.44" y2="447.37"/>
	</g>
</g>
<g class="st1">
	<line class="st8" x1="804.14" y1="871.28" x2="837.11" y2="806.31"/>
	<line class="st8" x1="853.11" y1="855.28" x2="788.13" y2="822.31"/>
</g>
<g class="st1">
	<path class="st4" d="M1647.93,839.43h-363.44c-15.71,0-28.45-12.74-28.45-28.45l0,0c0-15.71,12.74-28.45,28.45-28.45h363.44
		c15.71,0,28.45,12.74,28.45,28.45l0,0C1676.38,826.7,1663.64,839.43,1647.93,839.43z"/>
	<path class="st11" d="M1631.93,850.76h-363.44c-15.71,0-28.45-12.74-28.45-28.45v0c0-15.71,12.74-28.45,28.45-28.45h363.44
		c15.71,0,28.45,12.74,28.45,28.45v0C1660.38,838.02,1647.64,850.76,1631.93,850.76z"/>
	<g class="st3">
		<g>
			<path d="M1413.92,811.54c0.89,1.14,1.33,2.44,1.33,3.9c0,2.11-0.74,3.78-2.21,5.02c-1.48,1.24-3.53,1.85-6.17,1.85h-11.76v-25.25
				h11.37c2.57,0,4.57,0.59,6.03,1.76s2.18,2.77,2.18,4.78c0,1.49-0.39,2.72-1.17,3.71c-0.78,0.98-1.82,1.67-3.11,2.05
				C1411.86,809.67,1413.04,810.4,1413.92,811.54z M1401.26,807.27h4.03c1.01,0,1.78-0.22,2.32-0.67c0.54-0.44,0.81-1.1,0.81-1.96
				c0-0.86-0.27-1.52-0.81-1.98c-0.54-0.46-1.31-0.68-2.32-0.68h-4.03V807.27z M1408.19,816.65c0.56-0.47,0.84-1.15,0.84-2.03
				c0-0.89-0.29-1.58-0.88-2.09c-0.59-0.5-1.4-0.76-2.43-0.76h-4.46v5.58h4.53C1406.83,817.35,1407.62,817.11,1408.19,816.65z"/>
			<path d="M1424.86,797.06v15.11c0,1.51,0.37,2.67,1.12,3.49c0.74,0.82,1.83,1.22,3.27,1.22c1.44,0,2.54-0.41,3.31-1.22
				s1.15-1.98,1.15-3.49v-15.11h6.15v15.07c0,2.25-0.48,4.16-1.44,5.72c-0.96,1.56-2.25,2.73-3.87,3.53
				c-1.62,0.79-3.42,1.19-5.41,1.19c-1.99,0-3.77-0.39-5.34-1.17c-1.57-0.78-2.81-1.96-3.72-3.53c-0.91-1.57-1.37-3.48-1.37-5.74
				v-15.07H1424.86z"/>
			<path d="M1462.35,797.06v4.93h-6.69v20.33h-6.15v-20.33h-6.69v-4.93H1462.35z"/>
			<path d="M1483.61,797.06v4.93h-6.69v20.33h-6.15v-20.33h-6.69v-4.93H1483.61z"/>
			<path d="M1492.11,820.91c-1.98-1.1-3.55-2.64-4.71-4.62c-1.16-1.98-1.74-4.2-1.74-6.67c0-2.47,0.58-4.69,1.74-6.66
				c1.16-1.97,2.73-3.5,4.71-4.6s4.16-1.66,6.53-1.66c2.38,0,4.55,0.55,6.53,1.66c1.98,1.1,3.54,2.64,4.68,4.6
				c1.14,1.97,1.71,4.19,1.71,6.66c0,2.47-0.58,4.69-1.73,6.67c-1.15,1.98-2.71,3.52-4.68,4.62c-1.97,1.1-4.14,1.66-6.51,1.66
				C1496.27,822.56,1494.09,822.01,1492.11,820.91z M1503.48,814.94c1.21-1.34,1.82-3.12,1.82-5.32c0-2.23-0.61-4.01-1.82-5.34
				s-2.82-2-4.84-2c-2.04,0-3.66,0.66-4.87,1.98c-1.21,1.32-1.82,3.11-1.82,5.36c0,2.23,0.61,4.01,1.82,5.34
				c1.21,1.33,2.84,2,4.87,2C1500.66,816.95,1502.27,816.28,1503.48,814.94z"/>
			<path d="M1537.57,822.31h-6.15l-10.29-15.58v15.58h-6.15v-25.25h6.15l10.29,15.65v-15.65h6.15V822.31z"/>
		</g>
	</g>
</g>
<g>
</g>
<g>
</g>
<g>
</g>
<g>
</g>
<g>
</g>
<g>
</g>
</svg>
